<?xml version="1.0" encoding="UTF-8" standalone="no"?><svg xmlns="http://www.w3.org/2000/svg" xmlns:xlink="http://www.w3.org/1999/xlink" contentScriptType="application/ecmascript" contentStyleType="text/css" height="620px" preserveAspectRatio="none" style="width:1307px;height:620px;" version="1.1" viewBox="0 0 1307 620" width="1307px" zoomAndPan="magnify"><defs><filter height="300%" id="flucpvb5uu9b4" width="300%" x="-1" y="-1"><feGaussianBlur result="blurOut" stdDeviation="2.0"/><feColorMatrix in="blurOut" result="blurOut2" type="matrix" values="0 0 0 0 0 0 0 0 0 0 0 0 0 0 0 0 0 0 .4 0"/><feOffset dx="4.0" dy="4.0" in="blurOut2" result="blurOut3"/><feBlend in="SourceGraphic" in2="blurOut3" mode="normal"/></filter></defs><g><line style="stroke:#A80036;stroke-width:1.0;stroke-dasharray:5.0,5.0;" x1="40" x2="40" y1="89.6094" y2="534.5313"/><line style="stroke:#A80036;stroke-width:1.0;stroke-dasharray:5.0,5.0;" x1="228.5" x2="228.5" y1="89.6094" y2="534.5313"/><line style="stroke:#A80036;stroke-width:1.0;stroke-dasharray:5.0,5.0;" x1="434" x2="434" y1="89.6094" y2="534.5313"/><line style="stroke:#A80036;stroke-width:1.0;stroke-dasharray:5.0,5.0;" x1="533" x2="533" y1="89.6094" y2="534.5313"/><line style="stroke:#A80036;stroke-width:1.0;stroke-dasharray:5.0,5.0;" x1="626" x2="626" y1="89.6094" y2="534.5313"/><line style="stroke:#A80036;stroke-width:1.0;stroke-dasharray:5.0,5.0;" x1="734" x2="734" y1="89.6094" y2="534.5313"/><line style="stroke:#A80036;stroke-width:1.0;stroke-dasharray:5.0,5.0;" x1="863.5" x2="863.5" y1="89.6094" y2="534.5313"/><line style="stroke:#A80036;stroke-width:1.0;stroke-dasharray:5.0,5.0;" x1="999" x2="999" y1="89.6094" y2="534.5313"/><line style="stroke:#A80036;stroke-width:1.0;stroke-dasharray:5.0,5.0;" x1="1087" x2="1087" y1="89.6094" y2="534.5313"/><line style="stroke:#A80036;stroke-width:1.0;stroke-dasharray:5.0,5.0;" x1="1177" x2="1177" y1="89.6094" y2="534.5313"/><line style="stroke:#A80036;stroke-width:1.0;stroke-dasharray:5.0,5.0;" x1="1271" x2="1271" y1="89.6094" y2="534.5313"/><text fill="#000000" font-family="sans-serif" font-size="14" lengthAdjust="spacing" textLength="65" x="5" y="86.5332">Developer</text><ellipse cx="40.5" cy="15" fill="#FEFECE" filter="url(#flucpvb5uu9b4)" rx="8" ry="8" style="stroke:#A80036;stroke-width:2.0;"/><path d="M40.5,23 L40.5,50 M27.5,31 L53.5,31 M40.5,50 L27.5,65 M40.5,50 L53.5,65 " fill="none" filter="url(#flucpvb5uu9b4)" style="stroke:#A80036;stroke-width:2.0;"/><text fill="#000000" font-family="sans-serif" font-size="14" lengthAdjust="spacing" textLength="65" x="5" y="548.0645">Developer</text><ellipse cx="40.5" cy="561.1406" fill="#FEFECE" filter="url(#flucpvb5uu9b4)" rx="8" ry="8" style="stroke:#A80036;stroke-width:2.0;"/><path d="M40.5,569.1406 L40.5,596.1406 M27.5,577.1406 L53.5,577.1406 M40.5,596.1406 L27.5,611.1406 M40.5,596.1406 L53.5,611.1406 " fill="none" filter="url(#flucpvb5uu9b4)" style="stroke:#A80036;stroke-width:2.0;"/><rect fill="#FEFECE" filter="url(#flucpvb5uu9b4)" height="31.6094" style="stroke:#A80036;stroke-width:1.5;" width="146" x="153.5" y="53"/><text fill="#000000" font-family="sans-serif" font-size="14" lengthAdjust="spacing" textLength="132" x="160.5" y="74.5332">CollectStatCommand</text><rect fill="#FEFECE" filter="url(#flucpvb5uu9b4)" height="31.6094" style="stroke:#A80036;stroke-width:1.5;" width="146" x="153.5" y="533.5313"/><text fill="#000000" font-family="sans-serif" font-size="14" lengthAdjust="spacing" textLength="132" x="160.5" y="555.0645">CollectStatCommand</text><text fill="#000000" font-family="sans-serif" font-size="14" lengthAdjust="spacing" textLength="79" x="392" y="86.5332">ModeLibrary</text><path d="M416.5,36 C416.5,26 434.5,26 434.5,26 C434.5,26 452.5,26 452.5,36 L452.5,62 C452.5,72 434.5,72 434.5,72 C434.5,72 416.5,72 416.5,62 L416.5,36 " fill="#FEFECE" filter="url(#flucpvb5uu9b4)" style="stroke:#000000;stroke-width:1.5;"/><path d="M416.5,36 C416.5,46 434.5,46 434.5,46 C434.5,46 452.5,46 452.5,36 " fill="none" style="stroke:#000000;stroke-width:1.5;"/><text fill="#000000" font-family="sans-serif" font-size="14" lengthAdjust="spacing" textLength="79" x="392" y="548.0645">ModeLibrary</text><path d="M416.5,561.1406 C416.5,551.1406 434.5,551.1406 434.5,551.1406 C434.5,551.1406 452.5,551.1406 452.5,561.1406 L452.5,587.1406 C452.5,597.1406 434.5,597.1406 434.5,597.1406 C434.5,597.1406 416.5,597.1406 416.5,587.1406 L416.5,561.1406 " fill="#FEFECE" filter="url(#flucpvb5uu9b4)" style="stroke:#000000;stroke-width:1.5;"/><path d="M416.5,561.1406 C416.5,571.1406 434.5,571.1406 434.5,571.1406 C434.5,571.1406 452.5,571.1406 452.5,561.1406 " fill="none" style="stroke:#000000;stroke-width:1.5;"/><rect fill="#FEFECE" filter="url(#flucpvb5uu9b4)" height="31.6094" style="stroke:#A80036;stroke-width:1.5;" width="88" x="487" y="53"/><text fill="#000000" font-family="sans-serif" font-size="14" lengthAdjust="spacing" textLength="74" x="494" y="74.5332">ProjectTree</text><rect fill="#FEFECE" filter="url(#flucpvb5uu9b4)" height="31.6094" style="stroke:#A80036;stroke-width:1.5;" width="88" x="487" y="533.5313"/><text fill="#000000" font-family="sans-serif" font-size="14" lengthAdjust="spacing" textLength="74" x="494" y="555.0645">ProjectTree</text><rect fill="#FEFECE" filter="url(#flucpvb5uu9b4)" height="31.6094" style="stroke:#A80036;stroke-width:1.5;" width="70" x="589" y="53"/><text fill="#000000" font-family="sans-serif" font-size="14" lengthAdjust="spacing" textLength="56" x="596" y="74.5332">Statistics</text><rect fill="#FEFECE" filter="url(#flucpvb5uu9b4)" height="31.6094" style="stroke:#A80036;stroke-width:1.5;" width="70" x="589" y="533.5313"/><text fill="#000000" font-family="sans-serif" font-size="14" lengthAdjust="spacing" textLength="56" x="596" y="555.0645">Statistics</text><rect fill="#FEFECE" filter="url(#flucpvb5uu9b4)" height="31.6094" style="stroke:#A80036;stroke-width:1.5;" width="80" x="692" y="53"/><text fill="#000000" font-family="sans-serif" font-size="14" lengthAdjust="spacing" textLength="66" x="699" y="74.5332">FileReport</text><rect fill="#FEFECE" filter="url(#flucpvb5uu9b4)" height="31.6094" style="stroke:#A80036;stroke-width:1.5;" width="80" x="692" y="533.5313"/><text fill="#000000" font-family="sans-serif" font-size="14" lengthAdjust="spacing" textLength="66" x="699" y="555.0645">FileReport</text><rect fill="#FEFECE" filter="url(#flucpvb5uu9b4)" height="31.6094" style="stroke:#A80036;stroke-width:1.5;" width="101" x="811.5" y="53"/><text fill="#000000" font-family="sans-serif" font-size="14" lengthAdjust="spacing" textLength="87" x="818.5" y="74.5332">ProjectReport</text><rect fill="#FEFECE" filter="url(#flucpvb5uu9b4)" height="31.6094" style="stroke:#A80036;stroke-width:1.5;" width="101" x="811.5" y="533.5313"/><text fill="#000000" font-family="sans-serif" font-size="14" lengthAdjust="spacing" textLength="87" x="818.5" y="555.0645">ProjectReport</text><rect fill="#FEFECE" filter="url(#flucpvb5uu9b4)" height="31.6094" style="stroke:#A80036;stroke-width:1.5;" width="92" x="951" y="53"/><text fill="#000000" font-family="sans-serif" font-size="14" lengthAdjust="spacing" textLength="78" x="958" y="74.5332">JSONReport</text><rect fill="#FEFECE" filter="url(#flucpvb5uu9b4)" height="31.6094" style="stroke:#A80036;stroke-width:1.5;" width="92" x="951" y="533.5313"/><text fill="#000000" font-family="sans-serif" font-size="14" lengthAdjust="spacing" textLength="78" x="958" y="555.0645">JSONReport</text><rect fill="#FEFECE" filter="url(#flucpvb5uu9b4)" height="31.6094" style="stroke:#A80036;stroke-width:1.5;" width="57" x="1057" y="53"/><text fill="#000000" font-family="sans-serif" font-size="14" lengthAdjust="spacing" textLength="43" x="1064" y="74.5332">Layout</text><rect fill="#FEFECE" filter="url(#flucpvb5uu9b4)" height="31.6094" style="stroke:#A80036;stroke-width:1.5;" width="57" x="1057" y="533.5313"/><text fill="#000000" font-family="sans-serif" font-size="14" lengthAdjust="spacing" textLength="43" x="1064" y="555.0645">Layout</text><rect fill="#FEFECE" filter="url(#flucpvb5uu9b4)" height="31.6094" style="stroke:#A80036;stroke-width:1.5;" width="95" x="1128" y="53"/><text fill="#000000" font-family="sans-serif" font-size="14" lengthAdjust="spacing" textLength="81" x="1135" y="74.5332">ReportWriter</text><rect fill="#FEFECE" filter="url(#flucpvb5uu9b4)" height="31.6094" style="stroke:#A80036;stroke-width:1.5;" width="95" x="1128" y="533.5313"/><text fill="#000000" font-family="sans-serif" font-size="14" lengthAdjust="spacing" textLength="81" x="1135" y="555.0645">ReportWriter</text><text fill="#000000" font-family="sans-serif" font-size="14" lengthAdjust="spacing" textLength="63" x="1237" y="86.5332">Teamlead</text><ellipse cx="1271.5" cy="15" fill="#FEFECE" filter="url(#flucpvb5uu9b4)" rx="8" ry="8" style="stroke:#A80036;stroke-width:2.0;"/><path d="M1271.5,23 L1271.5,50 M1258.5,31 L1284.5,31 M1271.5,50 L1258.5,65 M1271.5,50 L1284.5,65 " fill="none" filter="url(#flucpvb5uu9b4)" style="stroke:#A80036;stroke-width:2.0;"/><text fill="#000000" font-family="sans-serif" font-size="14" lengthAdjust="spacing" textLength="63" x="1237" y="548.0645">Teamlead</text><ellipse cx="1271.5" cy="561.1406" fill="#FEFECE" filter="url(#flucpvb5uu9b4)" rx="8" ry="8" style="stroke:#A80036;stroke-width:2.0;"/><path d="M1271.5,569.1406 L1271.5,596.1406 M1258.5,577.1406 L1284.5,577.1406 M1271.5,596.1406 L1258.5,611.1406 M1271.5,596.1406 L1284.5,611.1406 " fill="none" filter="url(#flucpvb5uu9b4)" style="stroke:#A80036;stroke-width:2.0;"/><polygon fill="#A80036" points="216.5,117.9609,226.5,121.9609,216.5,125.9609,220.5,121.9609" style="stroke:#A80036;stroke-width:1.0;"/><line style="stroke:#A80036;stroke-width:1.0;" x1="40.5" x2="222.5" y1="121.9609" y2="121.9609"/><text fill="#000000" font-family="sans-serif" font-size="13" lengthAdjust="spacing" textLength="164" x="47.5" y="117.1045">Enters command to terminal</text><polygon fill="#A80036" points="422.5,148.3125,432.5,152.3125,422.5,156.3125,426.5,152.3125" style="stroke:#A80036;stroke-width:1.0;"/><line style="stroke:#A80036;stroke-width:1.0;" x1="228.5" x2="428.5" y1="152.3125" y2="152.3125"/><text fill="#000000" font-family="sans-serif" font-size="13" lengthAdjust="spacing" textLength="112" x="235.5" y="147.4561">Takes Mode via tag</text><polygon fill="#A80036" points="239.5,178.6641,229.5,182.6641,239.5,186.6641,235.5,182.6641" style="stroke:#A80036;stroke-width:1.0;"/><line style="stroke:#A80036;stroke-width:1.0;" x1="233.5" x2="433.5" y1="182.6641" y2="182.6641"/><text fill="#000000" font-family="sans-serif" font-size="13" lengthAdjust="spacing" textLength="182" x="245.5" y="177.8076">Returns Mode (set of statistics)</text><polygon fill="#A80036" points="521,209.0156,531,213.0156,521,217.0156,525,213.0156" style="stroke:#A80036;stroke-width:1.0;"/><line style="stroke:#A80036;stroke-width:1.0;" x1="228.5" x2="527" y1="213.0156" y2="213.0156"/><text fill="#000000" font-family="sans-serif" font-size="13" lengthAdjust="spacing" textLength="117" x="235.5" y="208.1592">Asks for project tree</text><polygon fill="#A80036" points="239.5,239.3672,229.5,243.3672,239.5,247.3672,235.5,243.3672" style="stroke:#A80036;stroke-width:1.0;"/><line style="stroke:#A80036;stroke-width:1.0;" x1="233.5" x2="532" y1="243.3672" y2="243.3672"/><text fill="#000000" font-family="sans-serif" font-size="13" lengthAdjust="spacing" textLength="108" x="245.5" y="238.5107">Returns set of files</text><polygon fill="#A80036" points="614,269.7188,624,273.7188,614,277.7188,618,273.7188" style="stroke:#A80036;stroke-width:1.0;"/><line style="stroke:#A80036;stroke-width:1.0;" x1="228.5" x2="620" y1="273.7188" y2="273.7188"/><text fill="#000000" font-family="sans-serif" font-size="13" lengthAdjust="spacing" textLength="159" x="235.5" y="268.8623">Invokes statistics collection</text><polygon fill="#A80036" points="722,300.0703,732,304.0703,722,308.0703,726,304.0703" style="stroke:#A80036;stroke-width:1.0;"/><line style="stroke:#A80036;stroke-width:1.0;" x1="626" x2="728" y1="304.0703" y2="304.0703"/><text fill="#000000" font-family="sans-serif" font-size="13" lengthAdjust="spacing" textLength="84" x="633" y="299.2139">Collects report</text><polygon fill="#A80036" points="852,330.4219,862,334.4219,852,338.4219,856,334.4219" style="stroke:#A80036;stroke-width:1.0;"/><line style="stroke:#A80036;stroke-width:1.0;" x1="734" x2="858" y1="334.4219" y2="334.4219"/><text fill="#000000" font-family="sans-serif" font-size="13" lengthAdjust="spacing" textLength="106" x="741" y="329.5654">Puts it all together</text><polygon fill="#A80036" points="852,360.7734,862,364.7734,852,368.7734,856,364.7734" style="stroke:#A80036;stroke-width:1.0;"/><line style="stroke:#A80036;stroke-width:1.0;" x1="533" x2="858" y1="364.7734" y2="364.7734"/><text fill="#000000" font-family="sans-serif" font-size="13" lengthAdjust="spacing" textLength="194" x="540" y="359.917">Adds tree representation to report</text><polygon fill="#A80036" points="987,391.125,997,395.125,987,399.125,991,395.125" style="stroke:#A80036;stroke-width:1.0;"/><line style="stroke:#A80036;stroke-width:1.0;" x1="864" x2="993" y1="395.125" y2="395.125"/><text fill="#000000" font-family="sans-serif" font-size="13" lengthAdjust="spacing" textLength="111" x="871" y="390.2686">Optionally to JSON</text><polygon fill="#A80036" points="1075.5,421.4766,1085.5,425.4766,1075.5,429.4766,1079.5,425.4766" style="stroke:#A80036;stroke-width:1.0;"/><line style="stroke:#A80036;stroke-width:1.0;" x1="864" x2="1081.5" y1="425.4766" y2="425.4766"/><text fill="#000000" font-family="sans-serif" font-size="13" lengthAdjust="spacing" textLength="52" x="871" y="420.6201">To String</text><polygon fill="#A80036" points="1165.5,451.8281,1175.5,455.8281,1165.5,459.8281,1169.5,455.8281" style="stroke:#A80036;stroke-width:1.0;"/><line style="stroke:#A80036;stroke-width:1.0;" x1="1087.5" x2="1171.5" y1="455.8281" y2="455.8281"/><text fill="#000000" font-family="sans-serif" font-size="13" lengthAdjust="spacing" textLength="63" x="1094.5" y="450.9717">To console</text><polygon fill="#A80036" points="51.5,482.1797,41.5,486.1797,51.5,490.1797,47.5,486.1797" style="stroke:#A80036;stroke-width:1.0;"/><line style="stroke:#A80036;stroke-width:1.0;" x1="45.5" x2="1176.5" y1="486.1797" y2="486.1797"/><text fill="#000000" font-family="sans-serif" font-size="13" lengthAdjust="spacing" textLength="161" x="57.5" y="481.3232">Sends a report back to user</text><polygon fill="#A80036" points="1259.5,512.5313,1269.5,516.5313,1259.5,520.5313,1263.5,516.5313" style="stroke:#A80036;stroke-width:1.0;"/><line style="stroke:#A80036;stroke-width:1.0;" x1="999" x2="1265.5" y1="516.5313" y2="516.5313"/><text fill="#000000" font-family="sans-serif" font-size="13" lengthAdjust="spacing" textLength="143" x="1006" y="511.6748">Integration to Github etc.</text><!--MD5=[0c5e763a4f72edff02576276f6794346]
@startuml

actor Developer
Developer -> CollectStatCommand : Enters command to terminal
database ModeLibrary
CollectStatCommand -> ModeLibrary : Takes Mode via tag
CollectStatCommand <- ModeLibrary : Returns Mode (set of statistics)

CollectStatCommand -> ProjectTree : Asks for project tree
CollectStatCommand <- ProjectTree : Returns set of files

CollectStatCommand -> Statistics : Invokes statistics collection

Statistics -> FileReport : Collects report

FileReport -> ProjectReport : Puts it all together

ProjectTree -> ProjectReport : Adds tree representation to report

ProjectReport -> JSONReport : Optionally to JSON

ProjectReport -> Layout : To String

Layout -> ReportWriter : To console

Developer <- ReportWriter : Sends a report back to user

actor Teamlead

JSONReport -> Teamlead : Integration to Github etc.

@enduml

PlantUML version 1.2021.01(Tue Feb 02 10:55:08 MSK 2021)
(GPL source distribution)
Java Runtime: OpenJDK Runtime Environment
JVM: OpenJDK 64-Bit Server VM
Default Encoding: Cp1251
Language: ru
Country: RU
--></g></svg>