<?xml version="1.0" encoding="UTF-8" standalone="no"?><svg xmlns="http://www.w3.org/2000/svg" xmlns:xlink="http://www.w3.org/1999/xlink" contentScriptType="application/ecmascript" contentStyleType="text/css" height="589px" preserveAspectRatio="none" style="width:1249px;height:589px;" version="1.1" viewBox="0 0 1249 589" width="1249px" zoomAndPan="magnify"><defs><filter height="300%" id="f1ac6537dnxcq5" width="300%" x="-1" y="-1"><feGaussianBlur result="blurOut" stdDeviation="2.0"/><feColorMatrix in="blurOut" result="blurOut2" type="matrix" values="0 0 0 0 0 0 0 0 0 0 0 0 0 0 0 0 0 0 .4 0"/><feOffset dx="4.0" dy="4.0" in="blurOut2" result="blurOut3"/><feBlend in="SourceGraphic" in2="blurOut3" mode="normal"/></filter></defs><g><line style="stroke:#A80036;stroke-width:1.0;stroke-dasharray:5.0,5.0;" x1="40" x2="40" y1="89.6094" y2="504.1797"/><line style="stroke:#A80036;stroke-width:1.0;stroke-dasharray:5.0,5.0;" x1="228.5" x2="228.5" y1="89.6094" y2="504.1797"/><line style="stroke:#A80036;stroke-width:1.0;stroke-dasharray:5.0,5.0;" x1="434" x2="434" y1="89.6094" y2="504.1797"/><line style="stroke:#A80036;stroke-width:1.0;stroke-dasharray:5.0,5.0;" x1="533" x2="533" y1="89.6094" y2="504.1797"/><line style="stroke:#A80036;stroke-width:1.0;stroke-dasharray:5.0,5.0;" x1="626" x2="626" y1="89.6094" y2="504.1797"/><line style="stroke:#A80036;stroke-width:1.0;stroke-dasharray:5.0,5.0;" x1="734" x2="734" y1="89.6094" y2="504.1797"/><line style="stroke:#A80036;stroke-width:1.0;stroke-dasharray:5.0,5.0;" x1="863.5" x2="863.5" y1="89.6094" y2="504.1797"/><line style="stroke:#A80036;stroke-width:1.0;stroke-dasharray:5.0,5.0;" x1="956.5" x2="956.5" y1="89.6094" y2="504.1797"/><line style="stroke:#A80036;stroke-width:1.0;stroke-dasharray:5.0,5.0;" x1="1046.5" x2="1046.5" y1="89.6094" y2="504.1797"/><line style="stroke:#A80036;stroke-width:1.0;stroke-dasharray:5.0,5.0;" x1="1213.5" x2="1213.5" y1="89.6094" y2="504.1797"/><text fill="#000000" font-family="sans-serif" font-size="14" lengthAdjust="spacing" textLength="65" x="5" y="86.5332">Developer</text><ellipse cx="40.5" cy="15" fill="#FEFECE" filter="url(#f1ac6537dnxcq5)" rx="8" ry="8" style="stroke:#A80036;stroke-width:2.0;"/><path d="M40.5,23 L40.5,50 M27.5,31 L53.5,31 M40.5,50 L27.5,65 M40.5,50 L53.5,65 " fill="none" filter="url(#f1ac6537dnxcq5)" style="stroke:#A80036;stroke-width:2.0;"/><text fill="#000000" font-family="sans-serif" font-size="14" lengthAdjust="spacing" textLength="65" x="5" y="517.7129">Developer</text><ellipse cx="40.5" cy="530.7891" fill="#FEFECE" filter="url(#f1ac6537dnxcq5)" rx="8" ry="8" style="stroke:#A80036;stroke-width:2.0;"/><path d="M40.5,538.7891 L40.5,565.7891 M27.5,546.7891 L53.5,546.7891 M40.5,565.7891 L27.5,580.7891 M40.5,565.7891 L53.5,580.7891 " fill="none" filter="url(#f1ac6537dnxcq5)" style="stroke:#A80036;stroke-width:2.0;"/><rect fill="#FEFECE" filter="url(#f1ac6537dnxcq5)" height="31.6094" style="stroke:#A80036;stroke-width:1.5;" width="146" x="153.5" y="53"/><text fill="#000000" font-family="sans-serif" font-size="14" lengthAdjust="spacing" textLength="132" x="160.5" y="74.5332">CollectStatCommand</text><rect fill="#FEFECE" filter="url(#f1ac6537dnxcq5)" height="31.6094" style="stroke:#A80036;stroke-width:1.5;" width="146" x="153.5" y="503.1797"/><text fill="#000000" font-family="sans-serif" font-size="14" lengthAdjust="spacing" textLength="132" x="160.5" y="524.7129">CollectStatCommand</text><text fill="#000000" font-family="sans-serif" font-size="14" lengthAdjust="spacing" textLength="79" x="392" y="86.5332">ModeLibrary</text><path d="M416.5,36 C416.5,26 434.5,26 434.5,26 C434.5,26 452.5,26 452.5,36 L452.5,62 C452.5,72 434.5,72 434.5,72 C434.5,72 416.5,72 416.5,62 L416.5,36 " fill="#FEFECE" filter="url(#f1ac6537dnxcq5)" style="stroke:#000000;stroke-width:1.5;"/><path d="M416.5,36 C416.5,46 434.5,46 434.5,46 C434.5,46 452.5,46 452.5,36 " fill="none" style="stroke:#000000;stroke-width:1.5;"/><text fill="#000000" font-family="sans-serif" font-size="14" lengthAdjust="spacing" textLength="79" x="392" y="517.7129">ModeLibrary</text><path d="M416.5,530.7891 C416.5,520.7891 434.5,520.7891 434.5,520.7891 C434.5,520.7891 452.5,520.7891 452.5,530.7891 L452.5,556.7891 C452.5,566.7891 434.5,566.7891 434.5,566.7891 C434.5,566.7891 416.5,566.7891 416.5,556.7891 L416.5,530.7891 " fill="#FEFECE" filter="url(#f1ac6537dnxcq5)" style="stroke:#000000;stroke-width:1.5;"/><path d="M416.5,530.7891 C416.5,540.7891 434.5,540.7891 434.5,540.7891 C434.5,540.7891 452.5,540.7891 452.5,530.7891 " fill="none" style="stroke:#000000;stroke-width:1.5;"/><rect fill="#FEFECE" filter="url(#f1ac6537dnxcq5)" height="31.6094" style="stroke:#A80036;stroke-width:1.5;" width="88" x="487" y="53"/><text fill="#000000" font-family="sans-serif" font-size="14" lengthAdjust="spacing" textLength="74" x="494" y="74.5332">ProjectTree</text><rect fill="#FEFECE" filter="url(#f1ac6537dnxcq5)" height="31.6094" style="stroke:#A80036;stroke-width:1.5;" width="88" x="487" y="503.1797"/><text fill="#000000" font-family="sans-serif" font-size="14" lengthAdjust="spacing" textLength="74" x="494" y="524.7129">ProjectTree</text><rect fill="#FEFECE" filter="url(#f1ac6537dnxcq5)" height="31.6094" style="stroke:#A80036;stroke-width:1.5;" width="70" x="589" y="53"/><text fill="#000000" font-family="sans-serif" font-size="14" lengthAdjust="spacing" textLength="56" x="596" y="74.5332">Statistics</text><rect fill="#FEFECE" filter="url(#f1ac6537dnxcq5)" height="31.6094" style="stroke:#A80036;stroke-width:1.5;" width="70" x="589" y="503.1797"/><text fill="#000000" font-family="sans-serif" font-size="14" lengthAdjust="spacing" textLength="56" x="596" y="524.7129">Statistics</text><rect fill="#FEFECE" filter="url(#f1ac6537dnxcq5)" height="31.6094" style="stroke:#A80036;stroke-width:1.5;" width="80" x="692" y="53"/><text fill="#000000" font-family="sans-serif" font-size="14" lengthAdjust="spacing" textLength="66" x="699" y="74.5332">FileReport</text><rect fill="#FEFECE" filter="url(#f1ac6537dnxcq5)" height="31.6094" style="stroke:#A80036;stroke-width:1.5;" width="80" x="692" y="503.1797"/><text fill="#000000" font-family="sans-serif" font-size="14" lengthAdjust="spacing" textLength="66" x="699" y="524.7129">FileReport</text><rect fill="#FEFECE" filter="url(#f1ac6537dnxcq5)" height="31.6094" style="stroke:#A80036;stroke-width:1.5;" width="101" x="811.5" y="53"/><text fill="#000000" font-family="sans-serif" font-size="14" lengthAdjust="spacing" textLength="87" x="818.5" y="74.5332">ProjectReport</text><rect fill="#FEFECE" filter="url(#f1ac6537dnxcq5)" height="31.6094" style="stroke:#A80036;stroke-width:1.5;" width="101" x="811.5" y="503.1797"/><text fill="#000000" font-family="sans-serif" font-size="14" lengthAdjust="spacing" textLength="87" x="818.5" y="524.7129">ProjectReport</text><rect fill="#FEFECE" filter="url(#f1ac6537dnxcq5)" height="31.6094" style="stroke:#A80036;stroke-width:1.5;" width="57" x="926.5" y="53"/><text fill="#000000" font-family="sans-serif" font-size="14" lengthAdjust="spacing" textLength="43" x="933.5" y="74.5332">Layout</text><rect fill="#FEFECE" filter="url(#f1ac6537dnxcq5)" height="31.6094" style="stroke:#A80036;stroke-width:1.5;" width="57" x="926.5" y="503.1797"/><text fill="#000000" font-family="sans-serif" font-size="14" lengthAdjust="spacing" textLength="43" x="933.5" y="524.7129">Layout</text><rect fill="#FEFECE" filter="url(#f1ac6537dnxcq5)" height="31.6094" style="stroke:#A80036;stroke-width:1.5;" width="95" x="997.5" y="53"/><text fill="#000000" font-family="sans-serif" font-size="14" lengthAdjust="spacing" textLength="81" x="1004.5" y="74.5332">ReportWriter</text><rect fill="#FEFECE" filter="url(#f1ac6537dnxcq5)" height="31.6094" style="stroke:#A80036;stroke-width:1.5;" width="95" x="997.5" y="503.1797"/><text fill="#000000" font-family="sans-serif" font-size="14" lengthAdjust="spacing" textLength="81" x="1004.5" y="524.7129">ReportWriter</text><text fill="#000000" font-family="sans-serif" font-size="14" lengthAdjust="spacing" textLength="63" x="1179.5" y="86.5332">Teamlead</text><ellipse cx="1214" cy="15" fill="#FEFECE" filter="url(#f1ac6537dnxcq5)" rx="8" ry="8" style="stroke:#A80036;stroke-width:2.0;"/><path d="M1214,23 L1214,50 M1201,31 L1227,31 M1214,50 L1201,65 M1214,50 L1227,65 " fill="none" filter="url(#f1ac6537dnxcq5)" style="stroke:#A80036;stroke-width:2.0;"/><text fill="#000000" font-family="sans-serif" font-size="14" lengthAdjust="spacing" textLength="63" x="1179.5" y="517.7129">Teamlead</text><ellipse cx="1214" cy="530.7891" fill="#FEFECE" filter="url(#f1ac6537dnxcq5)" rx="8" ry="8" style="stroke:#A80036;stroke-width:2.0;"/><path d="M1214,538.7891 L1214,565.7891 M1201,546.7891 L1227,546.7891 M1214,565.7891 L1201,580.7891 M1214,565.7891 L1227,580.7891 " fill="none" filter="url(#f1ac6537dnxcq5)" style="stroke:#A80036;stroke-width:2.0;"/><polygon fill="#A80036" points="216.5,117.9609,226.5,121.9609,216.5,125.9609,220.5,121.9609" style="stroke:#A80036;stroke-width:1.0;"/><line style="stroke:#A80036;stroke-width:1.0;" x1="40.5" x2="222.5" y1="121.9609" y2="121.9609"/><text fill="#000000" font-family="sans-serif" font-size="13" lengthAdjust="spacing" textLength="164" x="47.5" y="117.1045">Enters command to terminal</text><polygon fill="#A80036" points="422.5,148.3125,432.5,152.3125,422.5,156.3125,426.5,152.3125" style="stroke:#A80036;stroke-width:1.0;"/><line style="stroke:#A80036;stroke-width:1.0;" x1="228.5" x2="428.5" y1="152.3125" y2="152.3125"/><text fill="#000000" font-family="sans-serif" font-size="13" lengthAdjust="spacing" textLength="112" x="235.5" y="147.4561">Takes Mode via tag</text><polygon fill="#A80036" points="239.5,178.6641,229.5,182.6641,239.5,186.6641,235.5,182.6641" style="stroke:#A80036;stroke-width:1.0;"/><line style="stroke:#A80036;stroke-width:1.0;" x1="233.5" x2="433.5" y1="182.6641" y2="182.6641"/><text fill="#000000" font-family="sans-serif" font-size="13" lengthAdjust="spacing" textLength="182" x="245.5" y="177.8076">Returns Mode (set of statistics)</text><polygon fill="#A80036" points="521,209.0156,531,213.0156,521,217.0156,525,213.0156" style="stroke:#A80036;stroke-width:1.0;"/><line style="stroke:#A80036;stroke-width:1.0;" x1="228.5" x2="527" y1="213.0156" y2="213.0156"/><text fill="#000000" font-family="sans-serif" font-size="13" lengthAdjust="spacing" textLength="117" x="235.5" y="208.1592">Asks for project tree</text><polygon fill="#A80036" points="239.5,239.3672,229.5,243.3672,239.5,247.3672,235.5,243.3672" style="stroke:#A80036;stroke-width:1.0;"/><line style="stroke:#A80036;stroke-width:1.0;" x1="233.5" x2="532" y1="243.3672" y2="243.3672"/><text fill="#000000" font-family="sans-serif" font-size="13" lengthAdjust="spacing" textLength="108" x="245.5" y="238.5107">Returns set of files</text><polygon fill="#A80036" points="614,269.7188,624,273.7188,614,277.7188,618,273.7188" style="stroke:#A80036;stroke-width:1.0;"/><line style="stroke:#A80036;stroke-width:1.0;" x1="228.5" x2="620" y1="273.7188" y2="273.7188"/><text fill="#000000" font-family="sans-serif" font-size="13" lengthAdjust="spacing" textLength="159" x="235.5" y="268.8623">Invokes statistics collection</text><polygon fill="#A80036" points="722,300.0703,732,304.0703,722,308.0703,726,304.0703" style="stroke:#A80036;stroke-width:1.0;"/><line style="stroke:#A80036;stroke-width:1.0;" x1="626" x2="728" y1="304.0703" y2="304.0703"/><text fill="#000000" font-family="sans-serif" font-size="13" lengthAdjust="spacing" textLength="84" x="633" y="299.2139">Collects report</text><polygon fill="#A80036" points="852,330.4219,862,334.4219,852,338.4219,856,334.4219" style="stroke:#A80036;stroke-width:1.0;"/><line style="stroke:#A80036;stroke-width:1.0;" x1="734" x2="858" y1="334.4219" y2="334.4219"/><text fill="#000000" font-family="sans-serif" font-size="13" lengthAdjust="spacing" textLength="106" x="741" y="329.5654">Puts it all together</text><polygon fill="#A80036" points="852,360.7734,862,364.7734,852,368.7734,856,364.7734" style="stroke:#A80036;stroke-width:1.0;"/><line style="stroke:#A80036;stroke-width:1.0;" x1="533" x2="858" y1="364.7734" y2="364.7734"/><text fill="#000000" font-family="sans-serif" font-size="13" lengthAdjust="spacing" textLength="194" x="540" y="359.917">Adds tree representation to report</text><polygon fill="#A80036" points="945,391.125,955,395.125,945,399.125,949,395.125" style="stroke:#A80036;stroke-width:1.0;"/><line style="stroke:#A80036;stroke-width:1.0;" x1="864" x2="951" y1="395.125" y2="395.125"/><text fill="#000000" font-family="sans-serif" font-size="13" lengthAdjust="spacing" textLength="52" x="871" y="390.2686">To String</text><polygon fill="#A80036" points="1035,421.4766,1045,425.4766,1035,429.4766,1039,425.4766" style="stroke:#A80036;stroke-width:1.0;"/><line style="stroke:#A80036;stroke-width:1.0;" x1="957" x2="1041" y1="425.4766" y2="425.4766"/><text fill="#000000" font-family="sans-serif" font-size="13" lengthAdjust="spacing" textLength="63" x="964" y="420.6201">To console</text><polygon fill="#A80036" points="51.5,451.8281,41.5,455.8281,51.5,459.8281,47.5,455.8281" style="stroke:#A80036;stroke-width:1.0;"/><line style="stroke:#A80036;stroke-width:1.0;" x1="45.5" x2="1046" y1="455.8281" y2="455.8281"/><text fill="#000000" font-family="sans-serif" font-size="13" lengthAdjust="spacing" textLength="161" x="57.5" y="450.9717">Sends a report back to user</text><polygon fill="#A80036" points="1202,482.1797,1212,486.1797,1202,490.1797,1206,486.1797" style="stroke:#A80036;stroke-width:1.0;"/><line style="stroke:#A80036;stroke-width:1.0;" x1="1047" x2="1208" y1="486.1797" y2="486.1797"/><text fill="#000000" font-family="sans-serif" font-size="13" lengthAdjust="spacing" textLength="143" x="1054" y="481.3232">Integration to Github etc.</text><!--MD5=[dd9c756f7520b6d0fce16a76c1306ec2]
@startuml

actor Developer
Developer -> CollectStatCommand : Enters command to terminal
database ModeLibrary
CollectStatCommand -> ModeLibrary : Takes Mode via tag
CollectStatCommand <- ModeLibrary : Returns Mode (set of statistics)

CollectStatCommand -> ProjectTree : Asks for project tree
CollectStatCommand <- ProjectTree : Returns set of files

CollectStatCommand -> Statistics : Invokes statistics collection

Statistics -> FileReport : Collects report

FileReport -> ProjectReport : Puts it all together

ProjectTree -> ProjectReport : Adds tree representation to report

ProjectReport -> Layout : To String

Layout -> ReportWriter : To console

Developer <- ReportWriter : Sends a report back to user

actor Teamlead

ReportWriter -> Teamlead : Integration to Github etc.

@enduml

PlantUML version 1.2021.01(Tue Feb 02 10:55:08 MSK 2021)
(GPL source distribution)
Java Runtime: OpenJDK Runtime Environment
JVM: OpenJDK 64-Bit Server VM
Default Encoding: Cp1251
Language: ru
Country: RU
--></g></svg>