<?xml version="1.0" encoding="UTF-8" standalone="no"?><svg xmlns="http://www.w3.org/2000/svg" xmlns:xlink="http://www.w3.org/1999/xlink" contentScriptType="application/ecmascript" contentStyleType="text/css" height="1314px" preserveAspectRatio="none" style="width:1139px;height:1314px;" version="1.1" viewBox="0 0 1139 1314" width="1139px" zoomAndPan="magnify"><defs><filter height="300%" id="fg3c4sqj5b9o8" width="300%" x="-1" y="-1"><feGaussianBlur result="blurOut" stdDeviation="2.0"/><feColorMatrix in="blurOut" result="blurOut2" type="matrix" values="0 0 0 0 0 0 0 0 0 0 0 0 0 0 0 0 0 0 .4 0"/><feOffset dx="4.0" dy="4.0" in="blurOut2" result="blurOut3"/><feBlend in="SourceGraphic" in2="blurOut3" mode="normal"/></filter></defs><g><!--MD5=[6503e9964510e8b83256f8f5e7109bf1]
class Mode--><rect codeLine="2" fill="#FEFECE" filter="url(#fg3c4sqj5b9o8)" height="75.6719" id="Mode" style="stroke:#A80036;stroke-width:1.5;" width="152" x="296" y="347"/><ellipse cx="352.75" cy="363" fill="#ADD1B2" rx="11" ry="11" style="stroke:#A80036;stroke-width:1.0;"/><path d="M354.75,359.5 Q354.9531,359 355.1875,358.75 Q355.4219,358.5 355.6875,358.5 Q356.1563,358.5 356.4531,358.7813 Q356.75,359.0625 356.75,359.7188 L356.75,361.2813 Q356.75,361.9375 356.4688,362.2188 Q356.1875,362.5 355.75,362.5 Q355.3594,362.5 355.1094,362.3281 Q354.8594,362.1563 354.75,361.7031 Q354.7031,361.3906 354.5313,361.2188 Q354.2188,360.8906 353.6563,360.7031 Q353.0938,360.5 352.5313,360.5 Q351.8281,360.5 351.2344,360.7813 Q350.6563,361.0625 350.2031,361.6875 Q349.75,362.3125 349.75,363.1719 L349.75,364.0938 Q349.75,365.125 350.5938,365.8125 Q351.4375,366.5 352.9375,366.5 Q353.8281,366.5 354.4531,366.2969 Q354.8125,366.1875 355.2188,365.8281 Q355.4844,365.625 355.625,365.5625 Q355.7656,365.5 355.9375,365.5 Q356.2656,365.5 356.5,365.7656 Q356.75,366.0156 356.75,366.375 Q356.75,366.7188 356.4063,367.125 Q355.9063,367.7188 355.1094,368.0469 Q354.0625,368.5 352.7813,368.5 Q351.2813,368.5 350.0781,367.9063 Q349.1094,367.4375 348.4219,366.4219 Q347.75,365.4063 347.75,364.2031 L347.75,363.1094 Q347.75,361.8594 348.3438,360.7656 Q348.9531,359.6719 350,359.0938 Q351.0625,358.5 352.25,358.5 Q352.9688,358.5 353.5938,358.75 Q354.2188,359 354.75,359.5 Z " fill="#000000"/><text fill="#000000" font-family="sans-serif" font-size="12" lengthAdjust="spacing" textLength="30" x="373.25" y="367.9102">Mode</text><line style="stroke:#A80036;stroke-width:1.5;" x1="297" x2="447" y1="379" y2="379"/><ellipse cx="307" cy="390" fill="none" rx="3" ry="3" style="stroke:#038048;stroke-width:1.0;"/><text fill="#000000" font-family="sans-serif" font-size="11" lengthAdjust="spacing" textLength="126" x="316" y="394.4189">collectors: List&lt;Statistics&gt;</text><ellipse cx="307" cy="403.8359" fill="none" rx="3" ry="3" style="stroke:#038048;stroke-width:1.0;"/><text fill="#000000" font-family="sans-serif" font-size="11" lengthAdjust="spacing" textLength="49" x="316" y="408.2549">tag: String</text><line style="stroke:#A80036;stroke-width:1.5;" x1="297" x2="447" y1="414.6719" y2="414.6719"/><!--MD5=[4be6959a9b9b190aea2ec9a641857979]
class ModeLibrary--><rect codeLine="7" fill="#FEFECE" filter="url(#fg3c4sqj5b9o8)" height="89.5078" id="ModeLibrary" style="stroke:#A80036;stroke-width:1.5;" width="254" x="7" y="340"/><ellipse cx="96.25" cy="356" fill="#ADD1B2" rx="11" ry="11" style="stroke:#A80036;stroke-width:1.0;"/><path d="M98.25,352.5 Q98.4531,352 98.6875,351.75 Q98.9219,351.5 99.1875,351.5 Q99.6563,351.5 99.9531,351.7813 Q100.25,352.0625 100.25,352.7188 L100.25,354.2813 Q100.25,354.9375 99.9688,355.2188 Q99.6875,355.5 99.25,355.5 Q98.8594,355.5 98.6094,355.3281 Q98.3594,355.1563 98.25,354.7031 Q98.2031,354.3906 98.0313,354.2188 Q97.7188,353.8906 97.1563,353.7031 Q96.5938,353.5 96.0313,353.5 Q95.3281,353.5 94.7344,353.7813 Q94.1563,354.0625 93.7031,354.6875 Q93.25,355.3125 93.25,356.1719 L93.25,357.0938 Q93.25,358.125 94.0938,358.8125 Q94.9375,359.5 96.4375,359.5 Q97.3281,359.5 97.9531,359.2969 Q98.3125,359.1875 98.7188,358.8281 Q98.9844,358.625 99.125,358.5625 Q99.2656,358.5 99.4375,358.5 Q99.7656,358.5 100,358.7656 Q100.25,359.0156 100.25,359.375 Q100.25,359.7188 99.9063,360.125 Q99.4063,360.7188 98.6094,361.0469 Q97.5625,361.5 96.2813,361.5 Q94.7813,361.5 93.5781,360.9063 Q92.6094,360.4375 91.9219,359.4219 Q91.25,358.4063 91.25,357.2031 L91.25,356.1094 Q91.25,354.8594 91.8438,353.7656 Q92.4531,352.6719 93.5,352.0938 Q94.5625,351.5 95.75,351.5 Q96.4688,351.5 97.0938,351.75 Q97.7188,352 98.25,352.5 Z " fill="#000000"/><text fill="#000000" font-family="sans-serif" font-size="12" lengthAdjust="spacing" textLength="67" x="116.75" y="360.9102">ModeLibrary</text><line style="stroke:#A80036;stroke-width:1.5;" x1="8" x2="260" y1="372" y2="372"/><ellipse cx="18" cy="383" fill="none" rx="3" ry="3" style="stroke:#038048;stroke-width:1.0;"/><text fill="#000000" font-family="sans-serif" font-size="11" lengthAdjust="spacing" textLength="163" x="27" y="387.4189">knownModes: Map&lt;String, Mode&gt;</text><line style="stroke:#A80036;stroke-width:1.5;" x1="8" x2="260" y1="393.8359" y2="393.8359"/><ellipse cx="18" cy="404.8359" fill="#84BE84" rx="3" ry="3" style="stroke:#038048;stroke-width:1.0;"/><text fill="#000000" font-family="sans-serif" font-size="11" lengthAdjust="spacing" textLength="130" x="27" y="409.2549">getMode(tag: String): Mode</text><ellipse cx="18" cy="418.6719" fill="#84BE84" rx="3" ry="3" style="stroke:#038048;stroke-width:1.0;"/><text fill="#000000" font-family="sans-serif" font-size="11" lengthAdjust="spacing" textLength="228" x="27" y="423.0908">setMode(tag: String, stats: List&lt;Statistics&gt;): OK</text><!--MD5=[bc688b7af5f4ade04444d9907edfbe07]
class ProjectTree--><rect codeLine="13" fill="#FEFECE" filter="url(#fg3c4sqj5b9o8)" height="75.6719" id="ProjectTree" style="stroke:#A80036;stroke-width:1.5;" width="170" x="483" y="347"/><ellipse cx="532.25" cy="363" fill="#ADD1B2" rx="11" ry="11" style="stroke:#A80036;stroke-width:1.0;"/><path d="M534.25,359.5 Q534.4531,359 534.6875,358.75 Q534.9219,358.5 535.1875,358.5 Q535.6563,358.5 535.9531,358.7813 Q536.25,359.0625 536.25,359.7188 L536.25,361.2813 Q536.25,361.9375 535.9688,362.2188 Q535.6875,362.5 535.25,362.5 Q534.8594,362.5 534.6094,362.3281 Q534.3594,362.1563 534.25,361.7031 Q534.2031,361.3906 534.0313,361.2188 Q533.7188,360.8906 533.1563,360.7031 Q532.5938,360.5 532.0313,360.5 Q531.3281,360.5 530.7344,360.7813 Q530.1563,361.0625 529.7031,361.6875 Q529.25,362.3125 529.25,363.1719 L529.25,364.0938 Q529.25,365.125 530.0938,365.8125 Q530.9375,366.5 532.4375,366.5 Q533.3281,366.5 533.9531,366.2969 Q534.3125,366.1875 534.7188,365.8281 Q534.9844,365.625 535.125,365.5625 Q535.2656,365.5 535.4375,365.5 Q535.7656,365.5 536,365.7656 Q536.25,366.0156 536.25,366.375 Q536.25,366.7188 535.9063,367.125 Q535.4063,367.7188 534.6094,368.0469 Q533.5625,368.5 532.2813,368.5 Q530.7813,368.5 529.5781,367.9063 Q528.6094,367.4375 527.9219,366.4219 Q527.25,365.4063 527.25,364.2031 L527.25,363.1094 Q527.25,361.8594 527.8438,360.7656 Q528.4531,359.6719 529.5,359.0938 Q530.5625,358.5 531.75,358.5 Q532.4688,358.5 533.0938,358.75 Q533.7188,359 534.25,359.5 Z " fill="#000000"/><text fill="#000000" font-family="sans-serif" font-size="12" lengthAdjust="spacing" textLength="63" x="552.75" y="367.9102">ProjectTree</text><line style="stroke:#A80036;stroke-width:1.5;" x1="484" x2="652" y1="379" y2="379"/><line style="stroke:#A80036;stroke-width:1.5;" x1="484" x2="652" y1="387" y2="387"/><ellipse cx="494" cy="398" fill="#84BE84" rx="3" ry="3" style="stroke:#038048;stroke-width:1.0;"/><text fill="#000000" font-family="sans-serif" font-size="11" lengthAdjust="spacing" textLength="132" x="503" y="402.4189">getValidFiles(): List&lt;String&gt;</text><ellipse cx="494" cy="411.8359" fill="#84BE84" rx="3" ry="3" style="stroke:#038048;stroke-width:1.0;"/><text fill="#000000" font-family="sans-serif" font-size="11" lengthAdjust="spacing" textLength="144" x="503" y="416.2549">getProjectTreeReport(): String</text><!--MD5=[7749ced7579e1788259c18d1797b5c56]
class CollectStatCommand--><rect codeLine="42" fill="#FEFECE" filter="url(#fg3c4sqj5b9o8)" height="89.5078" id="CollectStatCommand" style="stroke:#A80036;stroke-width:1.5;" width="150" x="297" y="129"/><ellipse cx="312" cy="145" fill="#ADD1B2" rx="11" ry="11" style="stroke:#A80036;stroke-width:1.0;"/><path d="M314,141.5 Q314.2031,141 314.4375,140.75 Q314.6719,140.5 314.9375,140.5 Q315.4063,140.5 315.7031,140.7813 Q316,141.0625 316,141.7188 L316,143.2813 Q316,143.9375 315.7188,144.2188 Q315.4375,144.5 315,144.5 Q314.6094,144.5 314.3594,144.3281 Q314.1094,144.1563 314,143.7031 Q313.9531,143.3906 313.7813,143.2188 Q313.4688,142.8906 312.9063,142.7031 Q312.3438,142.5 311.7813,142.5 Q311.0781,142.5 310.4844,142.7813 Q309.9063,143.0625 309.4531,143.6875 Q309,144.3125 309,145.1719 L309,146.0938 Q309,147.125 309.8438,147.8125 Q310.6875,148.5 312.1875,148.5 Q313.0781,148.5 313.7031,148.2969 Q314.0625,148.1875 314.4688,147.8281 Q314.7344,147.625 314.875,147.5625 Q315.0156,147.5 315.1875,147.5 Q315.5156,147.5 315.75,147.7656 Q316,148.0156 316,148.375 Q316,148.7188 315.6563,149.125 Q315.1563,149.7188 314.3594,150.0469 Q313.3125,150.5 312.0313,150.5 Q310.5313,150.5 309.3281,149.9063 Q308.3594,149.4375 307.6719,148.4219 Q307,147.4063 307,146.2031 L307,145.1094 Q307,143.8594 307.5938,142.7656 Q308.2031,141.6719 309.25,141.0938 Q310.3125,140.5 311.5,140.5 Q312.2188,140.5 312.8438,140.75 Q313.4688,141 314,141.5 Z " fill="#000000"/><text fill="#000000" font-family="sans-serif" font-size="12" lengthAdjust="spacing" textLength="118" x="326" y="149.9102">CollectStatCommand</text><line style="stroke:#A80036;stroke-width:1.5;" x1="298" x2="446" y1="161" y2="161"/><text fill="#000000" font-family="sans-serif" font-size="11" lengthAdjust="spacing" textLength="58" x="303" y="176.4189">mode: Mode</text><text fill="#000000" font-family="sans-serif" font-size="11" lengthAdjust="spacing" textLength="111" x="303" y="190.2549">ProjectDirectory: String</text><line style="stroke:#A80036;stroke-width:1.5;" x1="298" x2="446" y1="196.6719" y2="196.6719"/><text fill="#000000" font-family="sans-serif" font-size="11" lengthAdjust="spacing" textLength="63" x="303" y="212.0908">call(): Integer</text><!--MD5=[caebf2ddd0fe15aa1cd7c0f919e7d6a1]
class Layout--><rect codeLine="56" fill="#FEFECE" filter="url(#fg3c4sqj5b9o8)" height="61.8359" id="Layout" style="stroke:#A80036;stroke-width:1.5;" width="258" x="685" y="143"/><ellipse cx="791.25" cy="159" fill="#B4A7E5" rx="11" ry="11" style="stroke:#A80036;stroke-width:1.0;"/><path d="M792.25,156 L792.25,162 L794.25,162 L794.7344,162 L795.25,162.625 L795.25,163 L795.25,163.375 L794.7344,164 L794.25,164 L788.25,164 L787.7656,164 L787.25,163.375 L787.25,163 L787.25,162.625 L787.7656,162 L788.25,162 L790.25,162 L790.25,156 L788.25,156 L787.7656,156 L787.25,155.375 L787.25,155 L787.25,154.625 L787.7656,154 L788.25,154 L794.25,154 L794.7344,154 L795.25,154.625 L795.25,155 L795.25,155.375 L794.7344,156 L794.25,156 L792.25,156 Z " fill="#000000"/><text fill="#000000" font-family="sans-serif" font-size="12" font-style="italic" lengthAdjust="spacing" textLength="37" x="811.75" y="163.9102">Layout</text><line style="stroke:#A80036;stroke-width:1.5;" x1="686" x2="942" y1="175" y2="175"/><line style="stroke:#A80036;stroke-width:1.5;" x1="686" x2="942" y1="183" y2="183"/><ellipse cx="696" cy="194" fill="#84BE84" rx="3" ry="3" style="stroke:#038048;stroke-width:1.0;"/><text fill="#000000" font-family="sans-serif" font-size="11" lengthAdjust="spacing" textLength="232" x="705" y="198.4189">toString(report: Report, tree: ProjectTree): String</text><!--MD5=[40d2668bbcd459976779c45dfe17221f]
class Statistics--><rect codeLine="23" fill="#FEFECE" filter="url(#fg3c4sqj5b9o8)" height="75.6719" id="Statistics" style="stroke:#A80036;stroke-width:1.5;" width="178" x="286" y="490"/><ellipse cx="346.75" cy="506" fill="#A9DCDF" rx="11" ry="11" style="stroke:#A80036;stroke-width:1.0;"/><path d="M348.5,507.5 L345.2031,507.5 L344.7656,508.5 L344.7656,508.5 L345.2344,508.5 L345.75,509.125 L345.75,509.5 L345.75,509.875 L345.2344,510.5 L344.7656,510.5 L342.875,510.5 L342.2656,510.5 L341.75,509.875 L341.75,509.5 L341.75,509.125 L342.2656,508.5 L342.875,508.5 L345.1875,502.5 L344.3125,502.5 L343.2656,502.5 L342.75,501.875 L342.75,501.5 L342.75,501.125 L343.2656,500.5 L344.3125,500.5 L347.9844,500.5 L350.6719,508.5 L351.2344,508.5 L351.2344,508.5 L351.75,509.125 L351.75,509.5 L351.75,509.875 L351.2344,510.5 L350.6719,510.5 L348.7813,510.5 L348.2656,510.5 L347.75,509.875 L347.75,509.5 L347.75,509.125 L348.2656,508.5 L348.7813,508.5 L348.7813,508.5 L348.5,507.5 Z M347.9531,505.5 L346.75,501.9219 L345.7188,505.5 L347.9531,505.5 Z " fill="#000000"/><text fill="#000000" font-family="sans-serif" font-size="12" font-style="italic" lengthAdjust="spacing" textLength="48" x="367.25" y="510.9102">Statistics</text><line style="stroke:#A80036;stroke-width:1.5;" x1="287" x2="463" y1="522" y2="522"/><text fill="#000000" font-family="sans-serif" font-size="11" lengthAdjust="spacing" textLength="49" x="292" y="537.4189">tag: String</text><line style="stroke:#A80036;stroke-width:1.5;" x1="287" x2="463" y1="543.8359" y2="543.8359"/><ellipse cx="297" cy="554.8359" fill="#84BE84" rx="3" ry="3" style="stroke:#038048;stroke-width:1.0;"/><text fill="#000000" font-family="sans-serif" font-size="11" lengthAdjust="spacing" textLength="152" x="306" y="559.2549">collect(fileName: String): Report</text><!--MD5=[f04bc80914162908d963b69930b02804]
class CollectCommentLines--><rect codeLine="30" fill="#FEFECE" filter="url(#fg3c4sqj5b9o8)" height="75.6719" id="CollectCommentLines" style="stroke:#A80036;stroke-width:1.5;" width="178" x="286" y="687"/><ellipse cx="310.9" cy="703" fill="#ADD1B2" rx="11" ry="11" style="stroke:#A80036;stroke-width:1.0;"/><path d="M312.9,699.5 Q313.1031,699 313.3375,698.75 Q313.5719,698.5 313.8375,698.5 Q314.3063,698.5 314.6031,698.7813 Q314.9,699.0625 314.9,699.7188 L314.9,701.2813 Q314.9,701.9375 314.6188,702.2188 Q314.3375,702.5 313.9,702.5 Q313.5094,702.5 313.2594,702.3281 Q313.0094,702.1563 312.9,701.7031 Q312.8531,701.3906 312.6813,701.2188 Q312.3688,700.8906 311.8063,700.7031 Q311.2438,700.5 310.6813,700.5 Q309.9781,700.5 309.3844,700.7813 Q308.8063,701.0625 308.3531,701.6875 Q307.9,702.3125 307.9,703.1719 L307.9,704.0938 Q307.9,705.125 308.7438,705.8125 Q309.5875,706.5 311.0875,706.5 Q311.9781,706.5 312.6031,706.2969 Q312.9625,706.1875 313.3688,705.8281 Q313.6344,705.625 313.775,705.5625 Q313.9156,705.5 314.0875,705.5 Q314.4156,705.5 314.65,705.7656 Q314.9,706.0156 314.9,706.375 Q314.9,706.7188 314.5563,707.125 Q314.0563,707.7188 313.2594,708.0469 Q312.2125,708.5 310.9313,708.5 Q309.4313,708.5 308.2281,707.9063 Q307.2594,707.4375 306.5719,706.4219 Q305.9,705.4063 305.9,704.2031 L305.9,703.1094 Q305.9,701.8594 306.4938,700.7656 Q307.1031,699.6719 308.15,699.0938 Q309.2125,698.5 310.4,698.5 Q311.1188,698.5 311.7438,698.75 Q312.3688,699 312.9,699.5 Z " fill="#000000"/><text fill="#000000" font-family="sans-serif" font-size="12" lengthAdjust="spacing" textLength="124" x="327.1" y="707.9102">CollectCommentLines</text><line style="stroke:#A80036;stroke-width:1.5;" x1="287" x2="463" y1="719" y2="719"/><text fill="#000000" font-family="sans-serif" font-size="11" lengthAdjust="spacing" textLength="49" x="292" y="734.4189">tag: String</text><line style="stroke:#A80036;stroke-width:1.5;" x1="287" x2="463" y1="740.8359" y2="740.8359"/><ellipse cx="297" cy="751.8359" fill="#84BE84" rx="3" ry="3" style="stroke:#038048;stroke-width:1.0;"/><text fill="#000000" font-family="sans-serif" font-size="11" lengthAdjust="spacing" textLength="152" x="306" y="756.2549">collect(fileName: String): Report</text><!--MD5=[7c7c86ab2f218cf21e47d4dfa3093ee6]
class Callable--><rect codeLine="38" fill="#FEFECE" filter="url(#fg3c4sqj5b9o8)" height="61.8359" id="Callable" style="stroke:#A80036;stroke-width:1.5;" width="79" x="332.5" y="7"/><ellipse cx="347.5" cy="23" fill="#B4A7E5" rx="11" ry="11" style="stroke:#A80036;stroke-width:1.0;"/><path d="M348.5,20 L348.5,26 L350.5,26 L350.9844,26 L351.5,26.625 L351.5,27 L351.5,27.375 L350.9844,28 L350.5,28 L344.5,28 L344.0156,28 L343.5,27.375 L343.5,27 L343.5,26.625 L344.0156,26 L344.5,26 L346.5,26 L346.5,20 L344.5,20 L344.0156,20 L343.5,19.375 L343.5,19 L343.5,18.625 L344.0156,18 L344.5,18 L350.5,18 L350.9844,18 L351.5,18.625 L351.5,19 L351.5,19.375 L350.9844,20 L350.5,20 L348.5,20 Z " fill="#000000"/><text fill="#000000" font-family="sans-serif" font-size="12" font-style="italic" lengthAdjust="spacing" textLength="47" x="361.5" y="27.9102">Callable</text><line style="stroke:#A80036;stroke-width:1.5;" x1="333.5" x2="410.5" y1="39" y2="39"/><line style="stroke:#A80036;stroke-width:1.5;" x1="333.5" x2="410.5" y1="47" y2="47"/><text fill="#000000" font-family="sans-serif" font-size="11" lengthAdjust="spacing" textLength="63" x="338.5" y="62.4189">call(): Integer</text><!--MD5=[f00dbe8c0302c6aec2cb26b3c659c8fc]
class Report--><rect codeLine="50" fill="#FEFECE" filter="url(#fg3c4sqj5b9o8)" height="89.5078" id="Report" style="stroke:#A80036;stroke-width:1.5;" width="174" x="430" y="823"/><ellipse cx="494.25" cy="839" fill="#A9DCDF" rx="11" ry="11" style="stroke:#A80036;stroke-width:1.0;"/><path d="M496,840.5 L492.7031,840.5 L492.2656,841.5 L492.2656,841.5 L492.7344,841.5 L493.25,842.125 L493.25,842.5 L493.25,842.875 L492.7344,843.5 L492.2656,843.5 L490.375,843.5 L489.7656,843.5 L489.25,842.875 L489.25,842.5 L489.25,842.125 L489.7656,841.5 L490.375,841.5 L492.6875,835.5 L491.8125,835.5 L490.7656,835.5 L490.25,834.875 L490.25,834.5 L490.25,834.125 L490.7656,833.5 L491.8125,833.5 L495.4844,833.5 L498.1719,841.5 L498.7344,841.5 L498.7344,841.5 L499.25,842.125 L499.25,842.5 L499.25,842.875 L498.7344,843.5 L498.1719,843.5 L496.2813,843.5 L495.7656,843.5 L495.25,842.875 L495.25,842.5 L495.25,842.125 L495.7656,841.5 L496.2813,841.5 L496.2813,841.5 L496,840.5 Z M495.4531,838.5 L494.25,834.9219 L493.2188,838.5 L495.4531,838.5 Z " fill="#000000"/><text fill="#000000" font-family="sans-serif" font-size="12" font-style="italic" lengthAdjust="spacing" textLength="37" x="514.75" y="843.9102">Report</text><line style="stroke:#A80036;stroke-width:1.5;" x1="431" x2="603" y1="855" y2="855"/><text fill="#000000" font-family="sans-serif" font-size="11" lengthAdjust="spacing" textLength="124" x="436" y="870.4189">stats: Map&lt;String, String&gt;</text><line style="stroke:#A80036;stroke-width:1.5;" x1="431" x2="603" y1="876.8359" y2="876.8359"/><ellipse cx="441" cy="887.8359" fill="#84BE84" rx="3" ry="3" style="stroke:#038048;stroke-width:1.0;"/><text fill="#000000" font-family="sans-serif" font-size="11" lengthAdjust="spacing" textLength="107" x="450" y="892.2549">save(fileName: String)</text><ellipse cx="441" cy="901.6719" fill="#84BE84" rx="3" ry="3" style="stroke:#038048;stroke-width:1.0;"/><text fill="#000000" font-family="sans-serif" font-size="11" lengthAdjust="spacing" textLength="148" x="450" y="906.0908">getStats(): Map&lt;String, String&gt;</text><!--MD5=[b1d71236a8e0f0324c69076c01455084]
class ReportWriter--><rect codeLine="60" fill="#FEFECE" filter="url(#fg3c4sqj5b9o8)" height="61.8359" id="ReportWriter" style="stroke:#A80036;stroke-width:1.5;" width="168" x="482" y="143"/><ellipse cx="527.25" cy="159" fill="#ADD1B2" rx="11" ry="11" style="stroke:#A80036;stroke-width:1.0;"/><path d="M529.25,155.5 Q529.4531,155 529.6875,154.75 Q529.9219,154.5 530.1875,154.5 Q530.6563,154.5 530.9531,154.7813 Q531.25,155.0625 531.25,155.7188 L531.25,157.2813 Q531.25,157.9375 530.9688,158.2188 Q530.6875,158.5 530.25,158.5 Q529.8594,158.5 529.6094,158.3281 Q529.3594,158.1563 529.25,157.7031 Q529.2031,157.3906 529.0313,157.2188 Q528.7188,156.8906 528.1563,156.7031 Q527.5938,156.5 527.0313,156.5 Q526.3281,156.5 525.7344,156.7813 Q525.1563,157.0625 524.7031,157.6875 Q524.25,158.3125 524.25,159.1719 L524.25,160.0938 Q524.25,161.125 525.0938,161.8125 Q525.9375,162.5 527.4375,162.5 Q528.3281,162.5 528.9531,162.2969 Q529.3125,162.1875 529.7188,161.8281 Q529.9844,161.625 530.125,161.5625 Q530.2656,161.5 530.4375,161.5 Q530.7656,161.5 531,161.7656 Q531.25,162.0156 531.25,162.375 Q531.25,162.7188 530.9063,163.125 Q530.4063,163.7188 529.6094,164.0469 Q528.5625,164.5 527.2813,164.5 Q525.7813,164.5 524.5781,163.9063 Q523.6094,163.4375 522.9219,162.4219 Q522.25,161.4063 522.25,160.2031 L522.25,159.1094 Q522.25,157.8594 522.8438,156.7656 Q523.4531,155.6719 524.5,155.0938 Q525.5625,154.5 526.75,154.5 Q527.4688,154.5 528.0938,154.75 Q528.7188,155 529.25,155.5 Z " fill="#000000"/><text fill="#000000" font-family="sans-serif" font-size="12" lengthAdjust="spacing" textLength="69" x="547.75" y="163.9102">ReportWriter</text><line style="stroke:#A80036;stroke-width:1.5;" x1="483" x2="649" y1="175" y2="175"/><line style="stroke:#A80036;stroke-width:1.5;" x1="483" x2="649" y1="183" y2="183"/><ellipse cx="493" cy="194" fill="#84BE84" rx="3" ry="3" style="stroke:#038048;stroke-width:1.0;"/><text fill="#000000" font-family="sans-serif" font-size="11" lengthAdjust="spacing" textLength="142" x="502" y="198.4189">output(layout: Layout): stdout</text><!--MD5=[c4c079a038893c355a5af4c3546826a5]
class ProjectReport--><rect codeLine="67" fill="#FEFECE" filter="url(#fg3c4sqj5b9o8)" height="117.1797" id="ProjectReport" style="stroke:#A80036;stroke-width:1.5;" width="174" x="500" y="973"/><ellipse cx="545.25" cy="989" fill="#ADD1B2" rx="11" ry="11" style="stroke:#A80036;stroke-width:1.0;"/><path d="M547.25,985.5 Q547.4531,985 547.6875,984.75 Q547.9219,984.5 548.1875,984.5 Q548.6563,984.5 548.9531,984.7813 Q549.25,985.0625 549.25,985.7188 L549.25,987.2813 Q549.25,987.9375 548.9688,988.2188 Q548.6875,988.5 548.25,988.5 Q547.8594,988.5 547.6094,988.3281 Q547.3594,988.1563 547.25,987.7031 Q547.2031,987.3906 547.0313,987.2188 Q546.7188,986.8906 546.1563,986.7031 Q545.5938,986.5 545.0313,986.5 Q544.3281,986.5 543.7344,986.7813 Q543.1563,987.0625 542.7031,987.6875 Q542.25,988.3125 542.25,989.1719 L542.25,990.0938 Q542.25,991.125 543.0938,991.8125 Q543.9375,992.5 545.4375,992.5 Q546.3281,992.5 546.9531,992.2969 Q547.3125,992.1875 547.7188,991.8281 Q547.9844,991.625 548.125,991.5625 Q548.2656,991.5 548.4375,991.5 Q548.7656,991.5 549,991.7656 Q549.25,992.0156 549.25,992.375 Q549.25,992.7188 548.9063,993.125 Q548.4063,993.7188 547.6094,994.0469 Q546.5625,994.5 545.2813,994.5 Q543.7813,994.5 542.5781,993.9063 Q541.6094,993.4375 540.9219,992.4219 Q540.25,991.4063 540.25,990.2031 L540.25,989.1094 Q540.25,987.8594 540.8438,986.7656 Q541.4531,985.6719 542.5,985.0938 Q543.5625,984.5 544.75,984.5 Q545.4688,984.5 546.0938,984.75 Q546.7188,985 547.25,985.5 Z " fill="#000000"/><text fill="#000000" font-family="sans-serif" font-size="12" lengthAdjust="spacing" textLength="75" x="565.75" y="993.9102">ProjectReport</text><line style="stroke:#A80036;stroke-width:1.5;" x1="501" x2="673" y1="1005" y2="1005"/><text fill="#000000" font-family="sans-serif" font-size="11" lengthAdjust="spacing" textLength="124" x="506" y="1020.4189">stats: Map&lt;String, String&gt;</text><text fill="#000000" font-family="sans-serif" font-size="11" lengthAdjust="spacing" textLength="143" x="506" y="1034.2549">childReports: List&lt;FileReport&gt;</text><line style="stroke:#A80036;stroke-width:1.5;" x1="501" x2="673" y1="1040.6719" y2="1040.6719"/><ellipse cx="511" cy="1051.6719" fill="#84BE84" rx="3" ry="3" style="stroke:#038048;stroke-width:1.0;"/><text fill="#000000" font-family="sans-serif" font-size="11" lengthAdjust="spacing" textLength="78" x="520" y="1056.0908">putAllTogether()</text><ellipse cx="511" cy="1065.5078" fill="#84BE84" rx="3" ry="3" style="stroke:#038048;stroke-width:1.0;"/><text fill="#000000" font-family="sans-serif" font-size="11" lengthAdjust="spacing" textLength="107" x="520" y="1069.9268">save(fileName: String)</text><ellipse cx="511" cy="1079.3438" fill="#84BE84" rx="3" ry="3" style="stroke:#038048;stroke-width:1.0;"/><text fill="#000000" font-family="sans-serif" font-size="11" lengthAdjust="spacing" textLength="148" x="520" y="1083.7627">getStats(): Map&lt;String, String&gt;</text><!--MD5=[cbf6ed1efeae6ec1cb5f0ab34665af9e]
class FileReport--><rect codeLine="75" fill="#FEFECE" filter="url(#fg3c4sqj5b9o8)" height="89.5078" id="FileReport" style="stroke:#A80036;stroke-width:1.5;" width="174" x="395" y="1211"/><ellipse cx="449.25" cy="1227" fill="#ADD1B2" rx="11" ry="11" style="stroke:#A80036;stroke-width:1.0;"/><path d="M451.25,1223.5 Q451.4531,1223 451.6875,1222.75 Q451.9219,1222.5 452.1875,1222.5 Q452.6563,1222.5 452.9531,1222.7813 Q453.25,1223.0625 453.25,1223.7188 L453.25,1225.2813 Q453.25,1225.9375 452.9688,1226.2188 Q452.6875,1226.5 452.25,1226.5 Q451.8594,1226.5 451.6094,1226.3281 Q451.3594,1226.1563 451.25,1225.7031 Q451.2031,1225.3906 451.0313,1225.2188 Q450.7188,1224.8906 450.1563,1224.7031 Q449.5938,1224.5 449.0313,1224.5 Q448.3281,1224.5 447.7344,1224.7813 Q447.1563,1225.0625 446.7031,1225.6875 Q446.25,1226.3125 446.25,1227.1719 L446.25,1228.0938 Q446.25,1229.125 447.0938,1229.8125 Q447.9375,1230.5 449.4375,1230.5 Q450.3281,1230.5 450.9531,1230.2969 Q451.3125,1230.1875 451.7188,1229.8281 Q451.9844,1229.625 452.125,1229.5625 Q452.2656,1229.5 452.4375,1229.5 Q452.7656,1229.5 453,1229.7656 Q453.25,1230.0156 453.25,1230.375 Q453.25,1230.7188 452.9063,1231.125 Q452.4063,1231.7188 451.6094,1232.0469 Q450.5625,1232.5 449.2813,1232.5 Q447.7813,1232.5 446.5781,1231.9063 Q445.6094,1231.4375 444.9219,1230.4219 Q444.25,1229.4063 444.25,1228.2031 L444.25,1227.1094 Q444.25,1225.8594 444.8438,1224.7656 Q445.4531,1223.6719 446.5,1223.0938 Q447.5625,1222.5 448.75,1222.5 Q449.4688,1222.5 450.0938,1222.75 Q450.7188,1223 451.25,1223.5 Z " fill="#000000"/><text fill="#000000" font-family="sans-serif" font-size="12" lengthAdjust="spacing" textLength="57" x="469.75" y="1231.9102">FileReport</text><line style="stroke:#A80036;stroke-width:1.5;" x1="396" x2="568" y1="1243" y2="1243"/><text fill="#000000" font-family="sans-serif" font-size="11" lengthAdjust="spacing" textLength="124" x="401" y="1258.4189">stats: Map&lt;String, String&gt;</text><line style="stroke:#A80036;stroke-width:1.5;" x1="396" x2="568" y1="1264.8359" y2="1264.8359"/><ellipse cx="406" cy="1275.8359" fill="#84BE84" rx="3" ry="3" style="stroke:#038048;stroke-width:1.0;"/><text fill="#000000" font-family="sans-serif" font-size="11" lengthAdjust="spacing" textLength="107" x="415" y="1280.2549">save(fileName: String)</text><ellipse cx="406" cy="1289.6719" fill="#84BE84" rx="3" ry="3" style="stroke:#038048;stroke-width:1.0;"/><text fill="#000000" font-family="sans-serif" font-size="11" lengthAdjust="spacing" textLength="148" x="415" y="1294.0908">getStats(): Map&lt;String, String&gt;</text><!--MD5=[c35494ed677991e2457e40db2e692e8a]
class JSONLayout--><rect codeLine="89" fill="#FEFECE" filter="url(#fg3c4sqj5b9o8)" height="61.8359" id="JSONLayout" style="stroke:#A80036;stroke-width:1.5;" width="258" x="867" y="497"/><ellipse cx="957.75" cy="513" fill="#ADD1B2" rx="11" ry="11" style="stroke:#A80036;stroke-width:1.0;"/><path d="M959.75,509.5 Q959.9531,509 960.1875,508.75 Q960.4219,508.5 960.6875,508.5 Q961.1563,508.5 961.4531,508.7813 Q961.75,509.0625 961.75,509.7188 L961.75,511.2813 Q961.75,511.9375 961.4688,512.2188 Q961.1875,512.5 960.75,512.5 Q960.3594,512.5 960.1094,512.3281 Q959.8594,512.1563 959.75,511.7031 Q959.7031,511.3906 959.5313,511.2188 Q959.2188,510.8906 958.6563,510.7031 Q958.0938,510.5 957.5313,510.5 Q956.8281,510.5 956.2344,510.7813 Q955.6563,511.0625 955.2031,511.6875 Q954.75,512.3125 954.75,513.1719 L954.75,514.0938 Q954.75,515.125 955.5938,515.8125 Q956.4375,516.5 957.9375,516.5 Q958.8281,516.5 959.4531,516.2969 Q959.8125,516.1875 960.2188,515.8281 Q960.4844,515.625 960.625,515.5625 Q960.7656,515.5 960.9375,515.5 Q961.2656,515.5 961.5,515.7656 Q961.75,516.0156 961.75,516.375 Q961.75,516.7188 961.4063,517.125 Q960.9063,517.7188 960.1094,518.0469 Q959.0625,518.5 957.7813,518.5 Q956.2813,518.5 955.0781,517.9063 Q954.1094,517.4375 953.4219,516.4219 Q952.75,515.4063 952.75,514.2031 L952.75,513.1094 Q952.75,511.8594 953.3438,510.7656 Q953.9531,509.6719 955,509.0938 Q956.0625,508.5 957.25,508.5 Q957.9688,508.5 958.5938,508.75 Q959.2188,509 959.75,509.5 Z " fill="#000000"/><text fill="#000000" font-family="sans-serif" font-size="12" lengthAdjust="spacing" textLength="68" x="978.25" y="517.9102">JSONLayout</text><line style="stroke:#A80036;stroke-width:1.5;" x1="868" x2="1124" y1="529" y2="529"/><line style="stroke:#A80036;stroke-width:1.5;" x1="868" x2="1124" y1="537" y2="537"/><ellipse cx="878" cy="548" fill="#84BE84" rx="3" ry="3" style="stroke:#038048;stroke-width:1.0;"/><text fill="#000000" font-family="sans-serif" font-size="11" lengthAdjust="spacing" textLength="232" x="887" y="552.4189">toString(report: Report, tree: ProjectTree): String</text><!--MD5=[0b83f6e80defe47dc0e4d1ab2571d0fd]
class TextLayout--><rect codeLine="93" fill="#FEFECE" filter="url(#fg3c4sqj5b9o8)" height="61.8359" id="TextLayout" style="stroke:#A80036;stroke-width:1.5;" width="258" x="503" y="497"/><ellipse cx="598.75" cy="513" fill="#ADD1B2" rx="11" ry="11" style="stroke:#A80036;stroke-width:1.0;"/><path d="M600.75,509.5 Q600.9531,509 601.1875,508.75 Q601.4219,508.5 601.6875,508.5 Q602.1563,508.5 602.4531,508.7813 Q602.75,509.0625 602.75,509.7188 L602.75,511.2813 Q602.75,511.9375 602.4688,512.2188 Q602.1875,512.5 601.75,512.5 Q601.3594,512.5 601.1094,512.3281 Q600.8594,512.1563 600.75,511.7031 Q600.7031,511.3906 600.5313,511.2188 Q600.2188,510.8906 599.6563,510.7031 Q599.0938,510.5 598.5313,510.5 Q597.8281,510.5 597.2344,510.7813 Q596.6563,511.0625 596.2031,511.6875 Q595.75,512.3125 595.75,513.1719 L595.75,514.0938 Q595.75,515.125 596.5938,515.8125 Q597.4375,516.5 598.9375,516.5 Q599.8281,516.5 600.4531,516.2969 Q600.8125,516.1875 601.2188,515.8281 Q601.4844,515.625 601.625,515.5625 Q601.7656,515.5 601.9375,515.5 Q602.2656,515.5 602.5,515.7656 Q602.75,516.0156 602.75,516.375 Q602.75,516.7188 602.4063,517.125 Q601.9063,517.7188 601.1094,518.0469 Q600.0625,518.5 598.7813,518.5 Q597.2813,518.5 596.0781,517.9063 Q595.1094,517.4375 594.4219,516.4219 Q593.75,515.4063 593.75,514.2031 L593.75,513.1094 Q593.75,511.8594 594.3438,510.7656 Q594.9531,509.6719 596,509.0938 Q597.0625,508.5 598.25,508.5 Q598.9688,508.5 599.5938,508.75 Q600.2188,509 600.75,509.5 Z " fill="#000000"/><text fill="#000000" font-family="sans-serif" font-size="12" lengthAdjust="spacing" textLength="58" x="619.25" y="517.9102">TextLayout</text><line style="stroke:#A80036;stroke-width:1.5;" x1="504" x2="760" y1="529" y2="529"/><line style="stroke:#A80036;stroke-width:1.5;" x1="504" x2="760" y1="537" y2="537"/><ellipse cx="514" cy="548" fill="#84BE84" rx="3" ry="3" style="stroke:#038048;stroke-width:1.0;"/><text fill="#000000" font-family="sans-serif" font-size="11" lengthAdjust="spacing" textLength="232" x="523" y="552.4189">toString(report: Report, tree: ProjectTree): String</text><!--MD5=[aa0aabadbb032637e2184c38b4bfef10]
reverse link CollectStatCommand to ProjectTree--><path codeLine="18" d="M417.14,223.13 C452.48,260.82 500.92,312.47 533.28,346.97 " fill="none" id="CollectStatCommand-backto-ProjectTree" style="stroke:#A80036;stroke-width:1.0;"/><polygon fill="#A80036" points="413.33,219.07,416.5661,228.372,416.7492,222.7181,422.4031,222.9013,413.33,219.07" style="stroke:#A80036;stroke-width:1.0;"/><!--MD5=[e978837a1d6479c3408f7bc901bb4b42]
reverse link Layout to ProjectTree--><path codeLine="19" d="M768.88,208.36 C742.49,228.28 708.81,254.41 680,279 C654.56,300.72 627.14,326.38 605.81,346.89 " fill="none" id="Layout-backto-ProjectTree" style="stroke:#A80036;stroke-width:1.0;"/><polygon fill="#A80036" points="773.05,205.22,763.4538,207.4365,769.0552,208.2269,768.2648,213.8282,773.05,205.22" style="stroke:#A80036;stroke-width:1.0;"/><!--MD5=[d1a180ee1fa767e48e019b69481211d9]
reverse link ModeLibrary to Mode--><path codeLine="21" d="M274.6,385 C281.71,385 288.83,385 295.94,385 " fill="none" id="ModeLibrary-backto-Mode" style="stroke:#A80036;stroke-width:1.0;"/><polygon fill="#FFFFFF" points="261.37,385,267.37,389,273.37,385,267.37,381,261.37,385" style="stroke:#A80036;stroke-width:1.0;"/><text fill="#000000" font-family="sans-serif" font-size="13" lengthAdjust="spacing" textLength="7" x="268.9359" y="382.057">1</text><text fill="#000000" font-family="sans-serif" font-size="13" lengthAdjust="spacing" textLength="5" x="282.8385" y="381.7052">*</text><!--MD5=[d80326fddefae7862e7cb2ef124ac209]
reverse link Mode to Statistics--><path codeLine="28" d="M373.07,436.11 C373.44,453.77 373.86,473.3 374.21,489.71 " fill="none" id="Mode-backto-Statistics" style="stroke:#A80036;stroke-width:1.0;"/><polygon fill="#FFFFFF" points="372.79,423.05,368.9163,429.1323,373.0408,435.0474,376.9145,428.9651,372.79,423.05" style="stroke:#A80036;stroke-width:1.0;"/><text fill="#000000" font-family="sans-serif" font-size="13" lengthAdjust="spacing" textLength="7" x="365.3412" y="444.2284">1</text><text fill="#000000" font-family="sans-serif" font-size="13" lengthAdjust="spacing" textLength="5" x="368.624" y="479.0202">*</text><!--MD5=[2e04d200ce1e62136e11b8d75e471902]
reverse link Statistics to CollectCommentLines--><path codeLine="35" d="M375,586.21 C375,618.62 375,658.25 375,686.67 " fill="none" id="Statistics-backto-CollectCommentLines" style="stroke:#A80036;stroke-width:1.0;"/><polygon fill="none" points="368,586.14,375,566.14,382,586.14,368,586.14" style="stroke:#A80036;stroke-width:1.0;"/><!--MD5=[5de77362c986eba63b699c3fd0f9e381]
reverse link CollectStatCommand to Mode--><path codeLine="36" d="M372,224.51 C372,262.07 372,312.89 372,346.97 " fill="none" id="CollectStatCommand-backto-Mode" style="stroke:#A80036;stroke-width:1.0;"/><polygon fill="#A80036" points="372,219.07,368,228.07,372,224.07,376,228.07,372,219.07" style="stroke:#A80036;stroke-width:1.0;"/><!--MD5=[1eededb588d3e376e6ad0f490d9d19e2]
reverse link Callable to CollectStatCommand--><path codeLine="48" d="M372,89.12 C372,102.14 372,116.08 372,128.78 " fill="none" id="Callable-backto-CollectStatCommand" style="stroke:#A80036;stroke-width:1.0;stroke-dasharray:7.0,7.0;"/><polygon fill="none" points="365,89.07,372,69.07,379,89.07,365,89.07" style="stroke:#A80036;stroke-width:1.0;"/><!--MD5=[c3e3b2c787d5aca6c47107886c1d320f]
reverse link CollectStatCommand to ReportWriter--><path codeLine="64" d="M452.2,174 C462.09,174 471.99,174 481.88,174 " fill="none" id="CollectStatCommand-backto-ReportWriter" style="stroke:#A80036;stroke-width:1.0;"/><polygon fill="#A80036" points="447.02,174,456.02,178,452.02,174,456.02,170,447.02,174" style="stroke:#A80036;stroke-width:1.0;"/><!--MD5=[8ad1350fd89ad53030bfa9bc64c5a168]
reverse link ReportWriter to Layout--><path codeLine="65" d="M655.41,174 C665.21,174 675.01,174 684.82,174 " fill="none" id="ReportWriter-backto-Layout" style="stroke:#A80036;stroke-width:1.0;"/><polygon fill="#A80036" points="650.28,174,659.28,178,655.28,174,659.28,170,650.28,174" style="stroke:#A80036;stroke-width:1.0;"/><!--MD5=[58a5afbf17e1972a96bc554d087c23db]
reverse link Layout to Report--><path codeLine="81" d="M814,210.28 C814,251.83 814,322.93 814,384 C814,384 814,384 814,627 C814,735.89 691.74,803.85 604.1,838.57 " fill="none" id="Layout-backto-Report" style="stroke:#A80036;stroke-width:1.0;"/><polygon fill="#A80036" points="814,205.11,810,214.11,814,210.11,818,214.11,814,205.11" style="stroke:#A80036;stroke-width:1.0;"/><!--MD5=[c222afdaa36e9a6f268072d83f57833a]
reverse link ProjectReport to FileReport--><path codeLine="82" d="M554.27,1101.85 C537.51,1137.37 517.6,1179.55 502.93,1210.65 " fill="none" id="ProjectReport-backto-FileReport" style="stroke:#A80036;stroke-width:1.0;"/><polygon fill="#FFFFFF" points="559.82,1090.09,553.6396,1093.8052,554.692,1100.9391,560.8724,1097.2239,559.82,1090.09" style="stroke:#A80036;stroke-width:1.0;"/><text fill="#000000" font-family="sans-serif" font-size="13" lengthAdjust="spacing" textLength="7" x="549.0809" y="1111.7112">1</text><text fill="#000000" font-family="sans-serif" font-size="13" lengthAdjust="spacing" textLength="5" x="500.7521" y="1200.0405">*</text><!--MD5=[242560039e3571243fa0086e742c3cf2]
reverse link Report to FileReport--><path codeLine="84" d="M492.82,932.36 C488.76,945.6 485.16,959.61 483,973 C469.6,1056.14 473.76,1154.86 477.93,1210.69 " fill="none" id="Report-backto-FileReport" style="stroke:#A80036;stroke-width:1.0;"/><polygon fill="none" points="486.29,929.82,499.23,913.03,499.58,934.22,486.29,929.82" style="stroke:#A80036;stroke-width:1.0;"/><!--MD5=[a658f73619ff540616d4d51303a09ca2]
reverse link Report to ProjectReport--><path codeLine="85" d="M544.15,931.63 C550.02,945.17 556.2,959.43 561.98,972.78 " fill="none" id="Report-backto-ProjectReport" style="stroke:#A80036;stroke-width:1.0;"/><polygon fill="none" points="537.66,934.26,536.13,913.13,550.5,928.7,537.66,934.26" style="stroke:#A80036;stroke-width:1.0;"/><!--MD5=[4d6bc4d0a176f6f1ee4144d7dcd24a53]
reverse link CollectCommentLines to Report--><path codeLine="86" d="M416.27,766.97 C433.94,784.53 454.62,805.06 472.62,822.93 " fill="none" id="CollectCommentLines-backto-Report" style="stroke:#A80036;stroke-width:1.0;"/><polygon fill="#A80036" points="412.31,763.05,415.8641,772.2352,415.8527,766.5784,421.5095,766.567,412.31,763.05" style="stroke:#A80036;stroke-width:1.0;"/><!--MD5=[d89429682aad55d6283477bcee4bc2fd]
reverse link Statistics to Report--><path codeLine="87" d="M409.69,570.1 C433.58,600.51 464.12,643.96 482,687 C500.32,731.1 509.18,785.32 513.39,822.66 " fill="none" id="Statistics-backto-Report" style="stroke:#A80036;stroke-width:1.0;"/><polygon fill="#A80036" points="406.52,566.08,408.955,575.6231,409.6173,570.0051,415.2352,570.6674,406.52,566.08" style="stroke:#A80036;stroke-width:1.0;"/><!--MD5=[4344c63afc89ba9189d8b70f7f6d93a4]
reverse link Layout to JSONLayout--><path codeLine="97" d="M838.88,223.12 C877.01,296.86 948.79,435.7 980.39,496.82 " fill="none" id="Layout-backto-JSONLayout" style="stroke:#A80036;stroke-width:1.0;stroke-dasharray:7.0,7.0;"/><polygon fill="none" points="832.48,225.99,829.52,205.01,844.92,219.56,832.48,225.99" style="stroke:#A80036;stroke-width:1.0;"/><!--MD5=[122fef25a55b7609630bed3670d45e29]
reverse link Layout to TextLayout--><path codeLine="98" d="M789.12,223.12 C750.99,296.86 679.21,435.7 647.61,496.82 " fill="none" id="Layout-backto-TextLayout" style="stroke:#A80036;stroke-width:1.0;stroke-dasharray:7.0,7.0;"/><polygon fill="none" points="783.08,219.56,798.48,205.01,795.52,225.99,783.08,219.56" style="stroke:#A80036;stroke-width:1.0;"/><!--MD5=[e0ea0671cba3e9cc115a0e6ef21c9135]
@startuml

class Mode {
    +collectors: List<Statistics>
    +tag: String
}

class ModeLibrary {
    +knownModes: Map<String, Mode>
    +getMode(tag: String): Mode
    +setMode(tag: String, stats: List<Statistics>): OK
}

class ProjectTree {
    +getValidFiles(): List<String>
    +getProjectTreeReport(): String
}

CollectStatCommand <- ProjectTree
Layout <- - - ProjectTree

ModeLibrary "1" o- "*" Mode

abstract class Statistics {
    tag: String
    +collect(fileName: String): Report
}

Mode "1" o- -"*" Statistics

class CollectCommentLines {
    tag: String
    +collect(fileName: String): Report
}

Statistics <|- - - CollectCommentLines
CollectStatCommand <- - - Mode

interface Callable {
    call(): Integer
}

class CollectStatCommand {
    mode: Mode
    ProjectDirectory: String
    call(): Integer
}

Callable <|.. CollectStatCommand

abstract class Report {
    stats: Map<String, String>
    +save(fileName: String)
    +getStats(): Map<String, String>
}

interface Layout {
    +toString(report: Report, tree: ProjectTree): String
}

class ReportWriter {
    +output(layout: Layout): stdout
}

CollectStatCommand <- ReportWriter
ReportWriter <- Layout

class ProjectReport {
    stats: Map<String, String>
    childReports: List<FileReport>
    +putAllTogether()
    +save(fileName: String)
    +getStats(): Map<String, String>
}

class FileReport {
    stats: Map<String, String>
    +save(fileName: String)
    +getStats(): Map<String, String>
}

Layout <- - Report
ProjectReport "1" o- - - "*" FileReport

Report <|- FileReport
Report <|- - ProjectReport
CollectCommentLines <- - Report
Statistics <- - Report

class JSONLayout {
    +toString(report: Report, tree: ProjectTree): String
}

class TextLayout {
    +toString(report: Report, tree: ProjectTree): String
}

Layout <|.... JSONLayout
Layout <|.... TextLayout

@enduml

PlantUML version 1.2021.01(Tue Feb 02 10:55:08 MSK 2021)
(GPL source distribution)
Java Runtime: OpenJDK Runtime Environment
JVM: OpenJDK 64-Bit Server VM
Default Encoding: Cp1251
Language: ru
Country: RU
--></g></svg>