<?xml version="1.0" encoding="UTF-8" standalone="no"?><svg xmlns="http://www.w3.org/2000/svg" xmlns:xlink="http://www.w3.org/1999/xlink" contentScriptType="application/ecmascript" contentStyleType="text/css" height="1327px" preserveAspectRatio="none" style="width:896px;height:1327px;" version="1.1" viewBox="0 0 896 1327" width="896px" zoomAndPan="magnify"><defs><filter height="300%" id="f4blhvhfoqjia" width="300%" x="-1" y="-1"><feGaussianBlur result="blurOut" stdDeviation="2.0"/><feColorMatrix in="blurOut" result="blurOut2" type="matrix" values="0 0 0 0 0 0 0 0 0 0 0 0 0 0 0 0 0 0 .4 0"/><feOffset dx="4.0" dy="4.0" in="blurOut2" result="blurOut3"/><feBlend in="SourceGraphic" in2="blurOut3" mode="normal"/></filter></defs><g><!--MD5=[6503e9964510e8b83256f8f5e7109bf1]
class Mode--><rect codeLine="2" fill="#FEFECE" filter="url(#f4blhvhfoqjia)" height="75.6719" id="Mode" style="stroke:#A80036;stroke-width:1.5;" width="152" x="296" y="360"/><ellipse cx="352.75" cy="376" fill="#ADD1B2" rx="11" ry="11" style="stroke:#A80036;stroke-width:1.0;"/><path d="M354.75,372.5 Q354.9531,372 355.1875,371.75 Q355.4219,371.5 355.6875,371.5 Q356.1563,371.5 356.4531,371.7813 Q356.75,372.0625 356.75,372.7188 L356.75,374.2813 Q356.75,374.9375 356.4688,375.2188 Q356.1875,375.5 355.75,375.5 Q355.3594,375.5 355.1094,375.3281 Q354.8594,375.1563 354.75,374.7031 Q354.7031,374.3906 354.5313,374.2188 Q354.2188,373.8906 353.6563,373.7031 Q353.0938,373.5 352.5313,373.5 Q351.8281,373.5 351.2344,373.7813 Q350.6563,374.0625 350.2031,374.6875 Q349.75,375.3125 349.75,376.1719 L349.75,377.0938 Q349.75,378.125 350.5938,378.8125 Q351.4375,379.5 352.9375,379.5 Q353.8281,379.5 354.4531,379.2969 Q354.8125,379.1875 355.2188,378.8281 Q355.4844,378.625 355.625,378.5625 Q355.7656,378.5 355.9375,378.5 Q356.2656,378.5 356.5,378.7656 Q356.75,379.0156 356.75,379.375 Q356.75,379.7188 356.4063,380.125 Q355.9063,380.7188 355.1094,381.0469 Q354.0625,381.5 352.7813,381.5 Q351.2813,381.5 350.0781,380.9063 Q349.1094,380.4375 348.4219,379.4219 Q347.75,378.4063 347.75,377.2031 L347.75,376.1094 Q347.75,374.8594 348.3438,373.7656 Q348.9531,372.6719 350,372.0938 Q351.0625,371.5 352.25,371.5 Q352.9688,371.5 353.5938,371.75 Q354.2188,372 354.75,372.5 Z " fill="#000000"/><text fill="#000000" font-family="sans-serif" font-size="12" lengthAdjust="spacing" textLength="30" x="373.25" y="380.9102">Mode</text><line style="stroke:#A80036;stroke-width:1.5;" x1="297" x2="447" y1="392" y2="392"/><ellipse cx="307" cy="403" fill="none" rx="3" ry="3" style="stroke:#038048;stroke-width:1.0;"/><text fill="#000000" font-family="sans-serif" font-size="11" lengthAdjust="spacing" textLength="126" x="316" y="407.4189">collectors: List&lt;Statistics&gt;</text><ellipse cx="307" cy="416.8359" fill="none" rx="3" ry="3" style="stroke:#038048;stroke-width:1.0;"/><text fill="#000000" font-family="sans-serif" font-size="11" lengthAdjust="spacing" textLength="49" x="316" y="421.2549">tag: String</text><line style="stroke:#A80036;stroke-width:1.5;" x1="297" x2="447" y1="427.6719" y2="427.6719"/><!--MD5=[4be6959a9b9b190aea2ec9a641857979]
class ModeLibrary--><rect codeLine="7" fill="#FEFECE" filter="url(#f4blhvhfoqjia)" height="89.5078" id="ModeLibrary" style="stroke:#A80036;stroke-width:1.5;" width="254" x="7" y="353"/><ellipse cx="96.25" cy="369" fill="#ADD1B2" rx="11" ry="11" style="stroke:#A80036;stroke-width:1.0;"/><path d="M98.25,365.5 Q98.4531,365 98.6875,364.75 Q98.9219,364.5 99.1875,364.5 Q99.6563,364.5 99.9531,364.7813 Q100.25,365.0625 100.25,365.7188 L100.25,367.2813 Q100.25,367.9375 99.9688,368.2188 Q99.6875,368.5 99.25,368.5 Q98.8594,368.5 98.6094,368.3281 Q98.3594,368.1563 98.25,367.7031 Q98.2031,367.3906 98.0313,367.2188 Q97.7188,366.8906 97.1563,366.7031 Q96.5938,366.5 96.0313,366.5 Q95.3281,366.5 94.7344,366.7813 Q94.1563,367.0625 93.7031,367.6875 Q93.25,368.3125 93.25,369.1719 L93.25,370.0938 Q93.25,371.125 94.0938,371.8125 Q94.9375,372.5 96.4375,372.5 Q97.3281,372.5 97.9531,372.2969 Q98.3125,372.1875 98.7188,371.8281 Q98.9844,371.625 99.125,371.5625 Q99.2656,371.5 99.4375,371.5 Q99.7656,371.5 100,371.7656 Q100.25,372.0156 100.25,372.375 Q100.25,372.7188 99.9063,373.125 Q99.4063,373.7188 98.6094,374.0469 Q97.5625,374.5 96.2813,374.5 Q94.7813,374.5 93.5781,373.9063 Q92.6094,373.4375 91.9219,372.4219 Q91.25,371.4063 91.25,370.2031 L91.25,369.1094 Q91.25,367.8594 91.8438,366.7656 Q92.4531,365.6719 93.5,365.0938 Q94.5625,364.5 95.75,364.5 Q96.4688,364.5 97.0938,364.75 Q97.7188,365 98.25,365.5 Z " fill="#000000"/><text fill="#000000" font-family="sans-serif" font-size="12" lengthAdjust="spacing" textLength="67" x="116.75" y="373.9102">ModeLibrary</text><line style="stroke:#A80036;stroke-width:1.5;" x1="8" x2="260" y1="385" y2="385"/><ellipse cx="18" cy="396" fill="none" rx="3" ry="3" style="stroke:#038048;stroke-width:1.0;"/><text fill="#000000" font-family="sans-serif" font-size="11" lengthAdjust="spacing" textLength="163" x="27" y="400.4189">knownModes: Map&lt;String, Mode&gt;</text><line style="stroke:#A80036;stroke-width:1.5;" x1="8" x2="260" y1="406.8359" y2="406.8359"/><ellipse cx="18" cy="417.8359" fill="#84BE84" rx="3" ry="3" style="stroke:#038048;stroke-width:1.0;"/><text fill="#000000" font-family="sans-serif" font-size="11" lengthAdjust="spacing" textLength="130" x="27" y="422.2549">getMode(tag: String): Mode</text><ellipse cx="18" cy="431.6719" fill="#84BE84" rx="3" ry="3" style="stroke:#038048;stroke-width:1.0;"/><text fill="#000000" font-family="sans-serif" font-size="11" lengthAdjust="spacing" textLength="228" x="27" y="436.0908">setMode(tag: String, stats: List&lt;Statistics&gt;): OK</text><!--MD5=[bc688b7af5f4ade04444d9907edfbe07]
class ProjectTree--><rect codeLine="13" fill="#FEFECE" filter="url(#f4blhvhfoqjia)" height="75.6719" id="ProjectTree" style="stroke:#A80036;stroke-width:1.5;" width="170" x="510" y="360"/><ellipse cx="559.25" cy="376" fill="#ADD1B2" rx="11" ry="11" style="stroke:#A80036;stroke-width:1.0;"/><path d="M561.25,372.5 Q561.4531,372 561.6875,371.75 Q561.9219,371.5 562.1875,371.5 Q562.6563,371.5 562.9531,371.7813 Q563.25,372.0625 563.25,372.7188 L563.25,374.2813 Q563.25,374.9375 562.9688,375.2188 Q562.6875,375.5 562.25,375.5 Q561.8594,375.5 561.6094,375.3281 Q561.3594,375.1563 561.25,374.7031 Q561.2031,374.3906 561.0313,374.2188 Q560.7188,373.8906 560.1563,373.7031 Q559.5938,373.5 559.0313,373.5 Q558.3281,373.5 557.7344,373.7813 Q557.1563,374.0625 556.7031,374.6875 Q556.25,375.3125 556.25,376.1719 L556.25,377.0938 Q556.25,378.125 557.0938,378.8125 Q557.9375,379.5 559.4375,379.5 Q560.3281,379.5 560.9531,379.2969 Q561.3125,379.1875 561.7188,378.8281 Q561.9844,378.625 562.125,378.5625 Q562.2656,378.5 562.4375,378.5 Q562.7656,378.5 563,378.7656 Q563.25,379.0156 563.25,379.375 Q563.25,379.7188 562.9063,380.125 Q562.4063,380.7188 561.6094,381.0469 Q560.5625,381.5 559.2813,381.5 Q557.7813,381.5 556.5781,380.9063 Q555.6094,380.4375 554.9219,379.4219 Q554.25,378.4063 554.25,377.2031 L554.25,376.1094 Q554.25,374.8594 554.8438,373.7656 Q555.4531,372.6719 556.5,372.0938 Q557.5625,371.5 558.75,371.5 Q559.4688,371.5 560.0938,371.75 Q560.7188,372 561.25,372.5 Z " fill="#000000"/><text fill="#000000" font-family="sans-serif" font-size="12" lengthAdjust="spacing" textLength="63" x="579.75" y="380.9102">ProjectTree</text><line style="stroke:#A80036;stroke-width:1.5;" x1="511" x2="679" y1="392" y2="392"/><line style="stroke:#A80036;stroke-width:1.5;" x1="511" x2="679" y1="400" y2="400"/><ellipse cx="521" cy="411" fill="#84BE84" rx="3" ry="3" style="stroke:#038048;stroke-width:1.0;"/><text fill="#000000" font-family="sans-serif" font-size="11" lengthAdjust="spacing" textLength="132" x="530" y="415.4189">getValidFiles(): List&lt;String&gt;</text><ellipse cx="521" cy="424.8359" fill="#84BE84" rx="3" ry="3" style="stroke:#038048;stroke-width:1.0;"/><text fill="#000000" font-family="sans-serif" font-size="11" lengthAdjust="spacing" textLength="144" x="530" y="429.2549">getProjectTreeReport(): String</text><!--MD5=[7749ced7579e1788259c18d1797b5c56]
class CollectStatCommand--><rect codeLine="42" fill="#FEFECE" filter="url(#f4blhvhfoqjia)" height="103.3438" id="CollectStatCommand" style="stroke:#A80036;stroke-width:1.5;" width="150" x="236" y="129"/><ellipse cx="251" cy="145" fill="#ADD1B2" rx="11" ry="11" style="stroke:#A80036;stroke-width:1.0;"/><path d="M253,141.5 Q253.2031,141 253.4375,140.75 Q253.6719,140.5 253.9375,140.5 Q254.4063,140.5 254.7031,140.7813 Q255,141.0625 255,141.7188 L255,143.2813 Q255,143.9375 254.7188,144.2188 Q254.4375,144.5 254,144.5 Q253.6094,144.5 253.3594,144.3281 Q253.1094,144.1563 253,143.7031 Q252.9531,143.3906 252.7813,143.2188 Q252.4688,142.8906 251.9063,142.7031 Q251.3438,142.5 250.7813,142.5 Q250.0781,142.5 249.4844,142.7813 Q248.9063,143.0625 248.4531,143.6875 Q248,144.3125 248,145.1719 L248,146.0938 Q248,147.125 248.8438,147.8125 Q249.6875,148.5 251.1875,148.5 Q252.0781,148.5 252.7031,148.2969 Q253.0625,148.1875 253.4688,147.8281 Q253.7344,147.625 253.875,147.5625 Q254.0156,147.5 254.1875,147.5 Q254.5156,147.5 254.75,147.7656 Q255,148.0156 255,148.375 Q255,148.7188 254.6563,149.125 Q254.1563,149.7188 253.3594,150.0469 Q252.3125,150.5 251.0313,150.5 Q249.5313,150.5 248.3281,149.9063 Q247.3594,149.4375 246.6719,148.4219 Q246,147.4063 246,146.2031 L246,145.1094 Q246,143.8594 246.5938,142.7656 Q247.2031,141.6719 248.25,141.0938 Q249.3125,140.5 250.5,140.5 Q251.2188,140.5 251.8438,140.75 Q252.4688,141 253,141.5 Z " fill="#000000"/><text fill="#000000" font-family="sans-serif" font-size="12" lengthAdjust="spacing" textLength="118" x="265" y="149.9102">CollectStatCommand</text><line style="stroke:#A80036;stroke-width:1.5;" x1="237" x2="385" y1="161" y2="161"/><text fill="#000000" font-family="sans-serif" font-size="11" lengthAdjust="spacing" textLength="58" x="242" y="176.4189">mode: Mode</text><text fill="#000000" font-family="sans-serif" font-size="11" lengthAdjust="spacing" textLength="111" x="242" y="190.2549">ProjectDirectory: String</text><line style="stroke:#A80036;stroke-width:1.5;" x1="237" x2="385" y1="196.6719" y2="196.6719"/><text fill="#000000" font-family="sans-serif" font-size="11" lengthAdjust="spacing" textLength="101" x="242" y="212.0908">execute(): Appender</text><text fill="#000000" font-family="sans-serif" font-size="11" lengthAdjust="spacing" textLength="63" x="242" y="225.9268">call(): Integer</text><!--MD5=[caebf2ddd0fe15aa1cd7c0f919e7d6a1]
class Layout--><rect codeLine="57" fill="#FEFECE" filter="url(#f4blhvhfoqjia)" height="61.8359" id="Layout" style="stroke:#A80036;stroke-width:1.5;" width="258" x="624" y="149.5"/><ellipse cx="730.75" cy="165.5" fill="#ADD1B2" rx="11" ry="11" style="stroke:#A80036;stroke-width:1.0;"/><path d="M732.75,162 Q732.9531,161.5 733.1875,161.25 Q733.4219,161 733.6875,161 Q734.1563,161 734.4531,161.2813 Q734.75,161.5625 734.75,162.2188 L734.75,163.7813 Q734.75,164.4375 734.4688,164.7188 Q734.1875,165 733.75,165 Q733.3594,165 733.1094,164.8281 Q732.8594,164.6563 732.75,164.2031 Q732.7031,163.8906 732.5313,163.7188 Q732.2188,163.3906 731.6563,163.2031 Q731.0938,163 730.5313,163 Q729.8281,163 729.2344,163.2813 Q728.6563,163.5625 728.2031,164.1875 Q727.75,164.8125 727.75,165.6719 L727.75,166.5938 Q727.75,167.625 728.5938,168.3125 Q729.4375,169 730.9375,169 Q731.8281,169 732.4531,168.7969 Q732.8125,168.6875 733.2188,168.3281 Q733.4844,168.125 733.625,168.0625 Q733.7656,168 733.9375,168 Q734.2656,168 734.5,168.2656 Q734.75,168.5156 734.75,168.875 Q734.75,169.2188 734.4063,169.625 Q733.9063,170.2188 733.1094,170.5469 Q732.0625,171 730.7813,171 Q729.2813,171 728.0781,170.4063 Q727.1094,169.9375 726.4219,168.9219 Q725.75,167.9063 725.75,166.7031 L725.75,165.6094 Q725.75,164.3594 726.3438,163.2656 Q726.9531,162.1719 728,161.5938 Q729.0625,161 730.25,161 Q730.9688,161 731.5938,161.25 Q732.2188,161.5 732.75,162 Z " fill="#000000"/><text fill="#000000" font-family="sans-serif" font-size="12" lengthAdjust="spacing" textLength="36" x="751.25" y="170.4102">Layout</text><line style="stroke:#A80036;stroke-width:1.5;" x1="625" x2="881" y1="181.5" y2="181.5"/><line style="stroke:#A80036;stroke-width:1.5;" x1="625" x2="881" y1="189.5" y2="189.5"/><ellipse cx="635" cy="200.5" fill="#84BE84" rx="3" ry="3" style="stroke:#038048;stroke-width:1.0;"/><text fill="#000000" font-family="sans-serif" font-size="11" lengthAdjust="spacing" textLength="232" x="644" y="204.9189">toString(report: Report, tree: ProjectTree): String</text><!--MD5=[40d2668bbcd459976779c45dfe17221f]
class Statistics--><rect codeLine="23" fill="#FEFECE" filter="url(#f4blhvhfoqjia)" height="75.6719" id="Statistics" style="stroke:#A80036;stroke-width:1.5;" width="178" x="348" y="503"/><ellipse cx="408.75" cy="519" fill="#A9DCDF" rx="11" ry="11" style="stroke:#A80036;stroke-width:1.0;"/><path d="M410.5,520.5 L407.2031,520.5 L406.7656,521.5 L406.7656,521.5 L407.2344,521.5 L407.75,522.125 L407.75,522.5 L407.75,522.875 L407.2344,523.5 L406.7656,523.5 L404.875,523.5 L404.2656,523.5 L403.75,522.875 L403.75,522.5 L403.75,522.125 L404.2656,521.5 L404.875,521.5 L407.1875,515.5 L406.3125,515.5 L405.2656,515.5 L404.75,514.875 L404.75,514.5 L404.75,514.125 L405.2656,513.5 L406.3125,513.5 L409.9844,513.5 L412.6719,521.5 L413.2344,521.5 L413.2344,521.5 L413.75,522.125 L413.75,522.5 L413.75,522.875 L413.2344,523.5 L412.6719,523.5 L410.7813,523.5 L410.2656,523.5 L409.75,522.875 L409.75,522.5 L409.75,522.125 L410.2656,521.5 L410.7813,521.5 L410.7813,521.5 L410.5,520.5 Z M409.9531,518.5 L408.75,514.9219 L407.7188,518.5 L409.9531,518.5 Z " fill="#000000"/><text fill="#000000" font-family="sans-serif" font-size="12" font-style="italic" lengthAdjust="spacing" textLength="48" x="429.25" y="523.9102">Statistics</text><line style="stroke:#A80036;stroke-width:1.5;" x1="349" x2="525" y1="535" y2="535"/><text fill="#000000" font-family="sans-serif" font-size="11" lengthAdjust="spacing" textLength="49" x="354" y="550.4189">tag: String</text><line style="stroke:#A80036;stroke-width:1.5;" x1="349" x2="525" y1="556.8359" y2="556.8359"/><ellipse cx="359" cy="567.8359" fill="#84BE84" rx="3" ry="3" style="stroke:#038048;stroke-width:1.0;"/><text fill="#000000" font-family="sans-serif" font-size="11" lengthAdjust="spacing" textLength="152" x="368" y="572.2549">collect(fileName: String): Report</text><!--MD5=[f04bc80914162908d963b69930b02804]
class CollectCommentLines--><rect codeLine="30" fill="#FEFECE" filter="url(#f4blhvhfoqjia)" height="75.6719" id="CollectCommentLines" style="stroke:#A80036;stroke-width:1.5;" width="178" x="490" y="700"/><ellipse cx="514.9" cy="716" fill="#ADD1B2" rx="11" ry="11" style="stroke:#A80036;stroke-width:1.0;"/><path d="M516.9,712.5 Q517.1031,712 517.3375,711.75 Q517.5719,711.5 517.8375,711.5 Q518.3063,711.5 518.6031,711.7813 Q518.9,712.0625 518.9,712.7188 L518.9,714.2813 Q518.9,714.9375 518.6188,715.2188 Q518.3375,715.5 517.9,715.5 Q517.5094,715.5 517.2594,715.3281 Q517.0094,715.1563 516.9,714.7031 Q516.8531,714.3906 516.6813,714.2188 Q516.3688,713.8906 515.8063,713.7031 Q515.2438,713.5 514.6813,713.5 Q513.9781,713.5 513.3844,713.7813 Q512.8063,714.0625 512.3531,714.6875 Q511.9,715.3125 511.9,716.1719 L511.9,717.0938 Q511.9,718.125 512.7438,718.8125 Q513.5875,719.5 515.0875,719.5 Q515.9781,719.5 516.6031,719.2969 Q516.9625,719.1875 517.3688,718.8281 Q517.6344,718.625 517.775,718.5625 Q517.9156,718.5 518.0875,718.5 Q518.4156,718.5 518.65,718.7656 Q518.9,719.0156 518.9,719.375 Q518.9,719.7188 518.5563,720.125 Q518.0563,720.7188 517.2594,721.0469 Q516.2125,721.5 514.9313,721.5 Q513.4313,721.5 512.2281,720.9063 Q511.2594,720.4375 510.5719,719.4219 Q509.9,718.4063 509.9,717.2031 L509.9,716.1094 Q509.9,714.8594 510.4938,713.7656 Q511.1031,712.6719 512.15,712.0938 Q513.2125,711.5 514.4,711.5 Q515.1188,711.5 515.7438,711.75 Q516.3688,712 516.9,712.5 Z " fill="#000000"/><text fill="#000000" font-family="sans-serif" font-size="12" lengthAdjust="spacing" textLength="124" x="531.1" y="720.9102">CollectCommentLines</text><line style="stroke:#A80036;stroke-width:1.5;" x1="491" x2="667" y1="732" y2="732"/><text fill="#000000" font-family="sans-serif" font-size="11" lengthAdjust="spacing" textLength="49" x="496" y="747.4189">tag: String</text><line style="stroke:#A80036;stroke-width:1.5;" x1="491" x2="667" y1="753.8359" y2="753.8359"/><ellipse cx="501" cy="764.8359" fill="#84BE84" rx="3" ry="3" style="stroke:#038048;stroke-width:1.0;"/><text fill="#000000" font-family="sans-serif" font-size="11" lengthAdjust="spacing" textLength="152" x="510" y="769.2549">collect(fileName: String): Report</text><!--MD5=[7c7c86ab2f218cf21e47d4dfa3093ee6]
class Callable--><rect codeLine="38" fill="#FEFECE" filter="url(#f4blhvhfoqjia)" height="61.8359" id="Callable" style="stroke:#A80036;stroke-width:1.5;" width="79" x="271.5" y="7"/><ellipse cx="286.5" cy="23" fill="#B4A7E5" rx="11" ry="11" style="stroke:#A80036;stroke-width:1.0;"/><path d="M287.5,20 L287.5,26 L289.5,26 L289.9844,26 L290.5,26.625 L290.5,27 L290.5,27.375 L289.9844,28 L289.5,28 L283.5,28 L283.0156,28 L282.5,27.375 L282.5,27 L282.5,26.625 L283.0156,26 L283.5,26 L285.5,26 L285.5,20 L283.5,20 L283.0156,20 L282.5,19.375 L282.5,19 L282.5,18.625 L283.0156,18 L283.5,18 L289.5,18 L289.9844,18 L290.5,18.625 L290.5,19 L290.5,19.375 L289.9844,20 L289.5,20 L287.5,20 Z " fill="#000000"/><text fill="#000000" font-family="sans-serif" font-size="12" font-style="italic" lengthAdjust="spacing" textLength="47" x="300.5" y="27.9102">Callable</text><line style="stroke:#A80036;stroke-width:1.5;" x1="272.5" x2="349.5" y1="39" y2="39"/><line style="stroke:#A80036;stroke-width:1.5;" x1="272.5" x2="349.5" y1="47" y2="47"/><text fill="#000000" font-family="sans-serif" font-size="11" lengthAdjust="spacing" textLength="63" x="277.5" y="62.4189">call(): Integer</text><!--MD5=[f00dbe8c0302c6aec2cb26b3c659c8fc]
class Report--><rect codeLine="51" fill="#FEFECE" filter="url(#f4blhvhfoqjia)" height="89.5078" id="Report" style="stroke:#A80036;stroke-width:1.5;" width="174" x="492" y="836"/><ellipse cx="556.25" cy="852" fill="#A9DCDF" rx="11" ry="11" style="stroke:#A80036;stroke-width:1.0;"/><path d="M558,853.5 L554.7031,853.5 L554.2656,854.5 L554.2656,854.5 L554.7344,854.5 L555.25,855.125 L555.25,855.5 L555.25,855.875 L554.7344,856.5 L554.2656,856.5 L552.375,856.5 L551.7656,856.5 L551.25,855.875 L551.25,855.5 L551.25,855.125 L551.7656,854.5 L552.375,854.5 L554.6875,848.5 L553.8125,848.5 L552.7656,848.5 L552.25,847.875 L552.25,847.5 L552.25,847.125 L552.7656,846.5 L553.8125,846.5 L557.4844,846.5 L560.1719,854.5 L560.7344,854.5 L560.7344,854.5 L561.25,855.125 L561.25,855.5 L561.25,855.875 L560.7344,856.5 L560.1719,856.5 L558.2813,856.5 L557.7656,856.5 L557.25,855.875 L557.25,855.5 L557.25,855.125 L557.7656,854.5 L558.2813,854.5 L558.2813,854.5 L558,853.5 Z M557.4531,851.5 L556.25,847.9219 L555.2188,851.5 L557.4531,851.5 Z " fill="#000000"/><text fill="#000000" font-family="sans-serif" font-size="12" font-style="italic" lengthAdjust="spacing" textLength="37" x="576.75" y="856.9102">Report</text><line style="stroke:#A80036;stroke-width:1.5;" x1="493" x2="665" y1="868" y2="868"/><text fill="#000000" font-family="sans-serif" font-size="11" lengthAdjust="spacing" textLength="124" x="498" y="883.4189">stats: Map&lt;String, String&gt;</text><line style="stroke:#A80036;stroke-width:1.5;" x1="493" x2="665" y1="889.8359" y2="889.8359"/><ellipse cx="503" cy="900.8359" fill="#84BE84" rx="3" ry="3" style="stroke:#038048;stroke-width:1.0;"/><text fill="#000000" font-family="sans-serif" font-size="11" lengthAdjust="spacing" textLength="107" x="512" y="905.2549">save(fileName: String)</text><ellipse cx="503" cy="914.6719" fill="#84BE84" rx="3" ry="3" style="stroke:#038048;stroke-width:1.0;"/><text fill="#000000" font-family="sans-serif" font-size="11" lengthAdjust="spacing" textLength="148" x="512" y="919.0908">getStats(): Map&lt;String, String&gt;</text><!--MD5=[2e773039ae21028591e1b55422fb8833]
class Appender--><rect codeLine="61" fill="#FEFECE" filter="url(#f4blhvhfoqjia)" height="61.8359" id="Appender" style="stroke:#A80036;stroke-width:1.5;" width="168" x="421" y="149.5"/><ellipse cx="474.25" cy="165.5" fill="#ADD1B2" rx="11" ry="11" style="stroke:#A80036;stroke-width:1.0;"/><path d="M476.25,162 Q476.4531,161.5 476.6875,161.25 Q476.9219,161 477.1875,161 Q477.6563,161 477.9531,161.2813 Q478.25,161.5625 478.25,162.2188 L478.25,163.7813 Q478.25,164.4375 477.9688,164.7188 Q477.6875,165 477.25,165 Q476.8594,165 476.6094,164.8281 Q476.3594,164.6563 476.25,164.2031 Q476.2031,163.8906 476.0313,163.7188 Q475.7188,163.3906 475.1563,163.2031 Q474.5938,163 474.0313,163 Q473.3281,163 472.7344,163.2813 Q472.1563,163.5625 471.7031,164.1875 Q471.25,164.8125 471.25,165.6719 L471.25,166.5938 Q471.25,167.625 472.0938,168.3125 Q472.9375,169 474.4375,169 Q475.3281,169 475.9531,168.7969 Q476.3125,168.6875 476.7188,168.3281 Q476.9844,168.125 477.125,168.0625 Q477.2656,168 477.4375,168 Q477.7656,168 478,168.2656 Q478.25,168.5156 478.25,168.875 Q478.25,169.2188 477.9063,169.625 Q477.4063,170.2188 476.6094,170.5469 Q475.5625,171 474.2813,171 Q472.7813,171 471.5781,170.4063 Q470.6094,169.9375 469.9219,168.9219 Q469.25,167.9063 469.25,166.7031 L469.25,165.6094 Q469.25,164.3594 469.8438,163.2656 Q470.4531,162.1719 471.5,161.5938 Q472.5625,161 473.75,161 Q474.4688,161 475.0938,161.25 Q475.7188,161.5 476.25,162 Z " fill="#000000"/><text fill="#000000" font-family="sans-serif" font-size="12" lengthAdjust="spacing" textLength="53" x="494.75" y="170.4102">Appender</text><line style="stroke:#A80036;stroke-width:1.5;" x1="422" x2="588" y1="181.5" y2="181.5"/><line style="stroke:#A80036;stroke-width:1.5;" x1="422" x2="588" y1="189.5" y2="189.5"/><ellipse cx="432" cy="200.5" fill="#84BE84" rx="3" ry="3" style="stroke:#038048;stroke-width:1.0;"/><text fill="#000000" font-family="sans-serif" font-size="11" lengthAdjust="spacing" textLength="142" x="441" y="204.9189">output(layout: Layout): stdout</text><!--MD5=[c4c079a038893c355a5af4c3546826a5]
class ProjectReport--><rect codeLine="68" fill="#FEFECE" filter="url(#f4blhvhfoqjia)" height="117.1797" id="ProjectReport" style="stroke:#A80036;stroke-width:1.5;" width="174" x="492" y="986"/><ellipse cx="537.25" cy="1002" fill="#ADD1B2" rx="11" ry="11" style="stroke:#A80036;stroke-width:1.0;"/><path d="M539.25,998.5 Q539.4531,998 539.6875,997.75 Q539.9219,997.5 540.1875,997.5 Q540.6563,997.5 540.9531,997.7813 Q541.25,998.0625 541.25,998.7188 L541.25,1000.2813 Q541.25,1000.9375 540.9688,1001.2188 Q540.6875,1001.5 540.25,1001.5 Q539.8594,1001.5 539.6094,1001.3281 Q539.3594,1001.1563 539.25,1000.7031 Q539.2031,1000.3906 539.0313,1000.2188 Q538.7188,999.8906 538.1563,999.7031 Q537.5938,999.5 537.0313,999.5 Q536.3281,999.5 535.7344,999.7813 Q535.1563,1000.0625 534.7031,1000.6875 Q534.25,1001.3125 534.25,1002.1719 L534.25,1003.0938 Q534.25,1004.125 535.0938,1004.8125 Q535.9375,1005.5 537.4375,1005.5 Q538.3281,1005.5 538.9531,1005.2969 Q539.3125,1005.1875 539.7188,1004.8281 Q539.9844,1004.625 540.125,1004.5625 Q540.2656,1004.5 540.4375,1004.5 Q540.7656,1004.5 541,1004.7656 Q541.25,1005.0156 541.25,1005.375 Q541.25,1005.7188 540.9063,1006.125 Q540.4063,1006.7188 539.6094,1007.0469 Q538.5625,1007.5 537.2813,1007.5 Q535.7813,1007.5 534.5781,1006.9063 Q533.6094,1006.4375 532.9219,1005.4219 Q532.25,1004.4063 532.25,1003.2031 L532.25,1002.1094 Q532.25,1000.8594 532.8438,999.7656 Q533.4531,998.6719 534.5,998.0938 Q535.5625,997.5 536.75,997.5 Q537.4688,997.5 538.0938,997.75 Q538.7188,998 539.25,998.5 Z " fill="#000000"/><text fill="#000000" font-family="sans-serif" font-size="12" lengthAdjust="spacing" textLength="75" x="557.75" y="1006.9102">ProjectReport</text><line style="stroke:#A80036;stroke-width:1.5;" x1="493" x2="665" y1="1018" y2="1018"/><text fill="#000000" font-family="sans-serif" font-size="11" lengthAdjust="spacing" textLength="124" x="498" y="1033.4189">stats: Map&lt;String, String&gt;</text><text fill="#000000" font-family="sans-serif" font-size="11" lengthAdjust="spacing" textLength="143" x="498" y="1047.2549">childReports: List&lt;FileReport&gt;</text><line style="stroke:#A80036;stroke-width:1.5;" x1="493" x2="665" y1="1053.6719" y2="1053.6719"/><ellipse cx="503" cy="1064.6719" fill="#84BE84" rx="3" ry="3" style="stroke:#038048;stroke-width:1.0;"/><text fill="#000000" font-family="sans-serif" font-size="11" lengthAdjust="spacing" textLength="78" x="512" y="1069.0908">putAllTogether()</text><ellipse cx="503" cy="1078.5078" fill="#84BE84" rx="3" ry="3" style="stroke:#038048;stroke-width:1.0;"/><text fill="#000000" font-family="sans-serif" font-size="11" lengthAdjust="spacing" textLength="107" x="512" y="1082.9268">save(fileName: String)</text><ellipse cx="503" cy="1092.3438" fill="#84BE84" rx="3" ry="3" style="stroke:#038048;stroke-width:1.0;"/><text fill="#000000" font-family="sans-serif" font-size="11" lengthAdjust="spacing" textLength="148" x="512" y="1096.7627">getStats(): Map&lt;String, String&gt;</text><!--MD5=[cbf6ed1efeae6ec1cb5f0ab34665af9e]
class FileReport--><rect codeLine="76" fill="#FEFECE" filter="url(#f4blhvhfoqjia)" height="89.5078" id="FileReport" style="stroke:#A80036;stroke-width:1.5;" width="174" x="387" y="1224"/><ellipse cx="441.25" cy="1240" fill="#ADD1B2" rx="11" ry="11" style="stroke:#A80036;stroke-width:1.0;"/><path d="M443.25,1236.5 Q443.4531,1236 443.6875,1235.75 Q443.9219,1235.5 444.1875,1235.5 Q444.6563,1235.5 444.9531,1235.7813 Q445.25,1236.0625 445.25,1236.7188 L445.25,1238.2813 Q445.25,1238.9375 444.9688,1239.2188 Q444.6875,1239.5 444.25,1239.5 Q443.8594,1239.5 443.6094,1239.3281 Q443.3594,1239.1563 443.25,1238.7031 Q443.2031,1238.3906 443.0313,1238.2188 Q442.7188,1237.8906 442.1563,1237.7031 Q441.5938,1237.5 441.0313,1237.5 Q440.3281,1237.5 439.7344,1237.7813 Q439.1563,1238.0625 438.7031,1238.6875 Q438.25,1239.3125 438.25,1240.1719 L438.25,1241.0938 Q438.25,1242.125 439.0938,1242.8125 Q439.9375,1243.5 441.4375,1243.5 Q442.3281,1243.5 442.9531,1243.2969 Q443.3125,1243.1875 443.7188,1242.8281 Q443.9844,1242.625 444.125,1242.5625 Q444.2656,1242.5 444.4375,1242.5 Q444.7656,1242.5 445,1242.7656 Q445.25,1243.0156 445.25,1243.375 Q445.25,1243.7188 444.9063,1244.125 Q444.4063,1244.7188 443.6094,1245.0469 Q442.5625,1245.5 441.2813,1245.5 Q439.7813,1245.5 438.5781,1244.9063 Q437.6094,1244.4375 436.9219,1243.4219 Q436.25,1242.4063 436.25,1241.2031 L436.25,1240.1094 Q436.25,1238.8594 436.8438,1237.7656 Q437.4531,1236.6719 438.5,1236.0938 Q439.5625,1235.5 440.75,1235.5 Q441.4688,1235.5 442.0938,1235.75 Q442.7188,1236 443.25,1236.5 Z " fill="#000000"/><text fill="#000000" font-family="sans-serif" font-size="12" lengthAdjust="spacing" textLength="57" x="461.75" y="1244.9102">FileReport</text><line style="stroke:#A80036;stroke-width:1.5;" x1="388" x2="560" y1="1256" y2="1256"/><text fill="#000000" font-family="sans-serif" font-size="11" lengthAdjust="spacing" textLength="124" x="393" y="1271.4189">stats: Map&lt;String, String&gt;</text><line style="stroke:#A80036;stroke-width:1.5;" x1="388" x2="560" y1="1277.8359" y2="1277.8359"/><ellipse cx="398" cy="1288.8359" fill="#84BE84" rx="3" ry="3" style="stroke:#038048;stroke-width:1.0;"/><text fill="#000000" font-family="sans-serif" font-size="11" lengthAdjust="spacing" textLength="107" x="407" y="1293.2549">save(fileName: String)</text><ellipse cx="398" cy="1302.6719" fill="#84BE84" rx="3" ry="3" style="stroke:#038048;stroke-width:1.0;"/><text fill="#000000" font-family="sans-serif" font-size="11" lengthAdjust="spacing" textLength="148" x="407" y="1307.0908">getStats(): Map&lt;String, String&gt;</text><!--MD5=[03709d6e7affb87ac2954687485ee9d4]
class JSONReport--><rect codeLine="90" fill="#FEFECE" filter="url(#f4blhvhfoqjia)" height="117.1797" id="JSONReport" style="stroke:#A80036;stroke-width:1.5;" width="174" x="701" y="986"/><ellipse cx="749.25" cy="1002" fill="#ADD1B2" rx="11" ry="11" style="stroke:#A80036;stroke-width:1.0;"/><path d="M751.25,998.5 Q751.4531,998 751.6875,997.75 Q751.9219,997.5 752.1875,997.5 Q752.6563,997.5 752.9531,997.7813 Q753.25,998.0625 753.25,998.7188 L753.25,1000.2813 Q753.25,1000.9375 752.9688,1001.2188 Q752.6875,1001.5 752.25,1001.5 Q751.8594,1001.5 751.6094,1001.3281 Q751.3594,1001.1563 751.25,1000.7031 Q751.2031,1000.3906 751.0313,1000.2188 Q750.7188,999.8906 750.1563,999.7031 Q749.5938,999.5 749.0313,999.5 Q748.3281,999.5 747.7344,999.7813 Q747.1563,1000.0625 746.7031,1000.6875 Q746.25,1001.3125 746.25,1002.1719 L746.25,1003.0938 Q746.25,1004.125 747.0938,1004.8125 Q747.9375,1005.5 749.4375,1005.5 Q750.3281,1005.5 750.9531,1005.2969 Q751.3125,1005.1875 751.7188,1004.8281 Q751.9844,1004.625 752.125,1004.5625 Q752.2656,1004.5 752.4375,1004.5 Q752.7656,1004.5 753,1004.7656 Q753.25,1005.0156 753.25,1005.375 Q753.25,1005.7188 752.9063,1006.125 Q752.4063,1006.7188 751.6094,1007.0469 Q750.5625,1007.5 749.2813,1007.5 Q747.7813,1007.5 746.5781,1006.9063 Q745.6094,1006.4375 744.9219,1005.4219 Q744.25,1004.4063 744.25,1003.2031 L744.25,1002.1094 Q744.25,1000.8594 744.8438,999.7656 Q745.4531,998.6719 746.5,998.0938 Q747.5625,997.5 748.75,997.5 Q749.4688,997.5 750.0938,997.75 Q750.7188,998 751.25,998.5 Z " fill="#000000"/><text fill="#000000" font-family="sans-serif" font-size="12" lengthAdjust="spacing" textLength="69" x="769.75" y="1006.9102">JSONReport</text><line style="stroke:#A80036;stroke-width:1.5;" x1="702" x2="874" y1="1018" y2="1018"/><text fill="#000000" font-family="sans-serif" font-size="11" lengthAdjust="spacing" textLength="124" x="707" y="1033.4189">stats: Map&lt;String, String&gt;</text><text fill="#000000" font-family="sans-serif" font-size="11" lengthAdjust="spacing" textLength="143" x="707" y="1047.2549">childReports: List&lt;FileReport&gt;</text><line style="stroke:#A80036;stroke-width:1.5;" x1="702" x2="874" y1="1053.6719" y2="1053.6719"/><ellipse cx="712" cy="1064.6719" fill="#84BE84" rx="3" ry="3" style="stroke:#038048;stroke-width:1.0;"/><text fill="#000000" font-family="sans-serif" font-size="11" lengthAdjust="spacing" textLength="78" x="721" y="1069.0908">putAllTogether()</text><ellipse cx="712" cy="1078.5078" fill="#84BE84" rx="3" ry="3" style="stroke:#038048;stroke-width:1.0;"/><text fill="#000000" font-family="sans-serif" font-size="11" lengthAdjust="spacing" textLength="107" x="721" y="1082.9268">save(fileName: String)</text><ellipse cx="712" cy="1092.3438" fill="#84BE84" rx="3" ry="3" style="stroke:#038048;stroke-width:1.0;"/><text fill="#000000" font-family="sans-serif" font-size="11" lengthAdjust="spacing" textLength="148" x="721" y="1096.7627">getStats(): Map&lt;String, String&gt;</text><!--MD5=[aa0aabadbb032637e2184c38b4bfef10]
reverse link CollectStatCommand to ProjectTree--><path codeLine="18" d="M381.86,235.27 C433.06,274.12 500.89,325.59 546.14,359.93 " fill="none" id="CollectStatCommand-backto-ProjectTree" style="stroke:#A80036;stroke-width:1.0;"/><polygon fill="#A80036" points="377.59,232.03,382.3359,240.66,381.5711,235.0551,387.176,234.2902,377.59,232.03" style="stroke:#A80036;stroke-width:1.0;"/><!--MD5=[e978837a1d6479c3408f7bc901bb4b42]
reverse link Layout to ProjectTree--><path codeLine="19" d="M727.62,216.12 C698.76,255.48 651.82,319.5 622.22,359.87 " fill="none" id="Layout-backto-ProjectTree" style="stroke:#A80036;stroke-width:1.0;"/><polygon fill="#A80036" points="730.7,211.92,722.1499,216.8082,727.7413,215.9507,728.5989,221.5421,730.7,211.92" style="stroke:#A80036;stroke-width:1.0;"/><!--MD5=[d1a180ee1fa767e48e019b69481211d9]
reverse link ModeLibrary to Mode--><path codeLine="21" d="M274.6,398 C281.71,398 288.83,398 295.94,398 " fill="none" id="ModeLibrary-backto-Mode" style="stroke:#A80036;stroke-width:1.0;"/><polygon fill="#FFFFFF" points="261.37,398,267.37,402,273.37,398,267.37,394,261.37,398" style="stroke:#A80036;stroke-width:1.0;"/><text fill="#000000" font-family="sans-serif" font-size="13" lengthAdjust="spacing" textLength="7" x="268.9359" y="395.057">1</text><text fill="#000000" font-family="sans-serif" font-size="13" lengthAdjust="spacing" textLength="5" x="282.8385" y="394.7052">*</text><!--MD5=[d80326fddefae7862e7cb2ef124ac209]
reverse link Mode to Statistics--><path codeLine="28" d="M394.62,448.07 C402.89,466 412.09,485.97 419.81,502.71 " fill="none" id="Mode-backto-Statistics" style="stroke:#A80036;stroke-width:1.0;"/><polygon fill="#FFFFFF" points="389.08,436.05,387.9609,443.1737,394.1062,446.9467,395.2253,439.8229,389.08,436.05" style="stroke:#A80036;stroke-width:1.0;"/><text fill="#000000" font-family="sans-serif" font-size="13" lengthAdjust="spacing" textLength="7" x="384.3292" y="457.2284">1</text><text fill="#000000" font-family="sans-serif" font-size="13" lengthAdjust="spacing" textLength="5" x="411.3027" y="492.0202">*</text><!--MD5=[2e04d200ce1e62136e11b8d75e471902]
reverse link Statistics to CollectCommentLines--><path codeLine="35" d="M475.98,595.53 C500.05,628.59 530.33,670.16 551.82,699.67 " fill="none" id="Statistics-backto-CollectCommentLines" style="stroke:#A80036;stroke-width:1.0;"/><polygon fill="none" points="470.16,599.43,464.04,579.14,481.48,591.18,470.16,599.43" style="stroke:#A80036;stroke-width:1.0;"/><!--MD5=[5de77362c986eba63b699c3fd0f9e381]
reverse link CollectStatCommand to Mode--><path codeLine="36" d="M326.75,237.15 C337.68,275.77 351.94,326.14 361.51,359.93 " fill="none" id="CollectStatCommand-backto-Mode" style="stroke:#A80036;stroke-width:1.0;"/><polygon fill="#A80036" points="325.3,232.03,323.892,241.7777,326.6566,236.8424,331.5919,239.6071,325.3,232.03" style="stroke:#A80036;stroke-width:1.0;"/><!--MD5=[1eededb588d3e376e6ad0f490d9d19e2]
reverse link Callable to CollectStatCommand--><path codeLine="49" d="M311,89.5 C311,102.33 311,116.12 311,128.96 " fill="none" id="Callable-backto-CollectStatCommand" style="stroke:#A80036;stroke-width:1.0;stroke-dasharray:7.0,7.0;"/><polygon fill="none" points="304,89.14,311,69.14,318,89.14,304,89.14" style="stroke:#A80036;stroke-width:1.0;"/><!--MD5=[eb5d0e593f97ef8514a66820b154b64c]
reverse link CollectStatCommand to Appender--><path codeLine="65" d="M391.2,180.5 C401.09,180.5 410.99,180.5 420.88,180.5 " fill="none" id="CollectStatCommand-backto-Appender" style="stroke:#A80036;stroke-width:1.0;"/><polygon fill="#A80036" points="386.02,180.5,395.02,184.5,391.02,180.5,395.02,176.5,386.02,180.5" style="stroke:#A80036;stroke-width:1.0;"/><!--MD5=[74ad312a384ffe0818aa76b4deba2f51]
reverse link Appender to Layout--><path codeLine="66" d="M594.41,180.5 C604.21,180.5 614.01,180.5 623.82,180.5 " fill="none" id="Appender-backto-Layout" style="stroke:#A80036;stroke-width:1.0;"/><polygon fill="#A80036" points="589.28,180.5,598.28,184.5,594.28,180.5,598.28,176.5,589.28,180.5" style="stroke:#A80036;stroke-width:1.0;"/><!--MD5=[58a5afbf17e1972a96bc554d087c23db]
reverse link Layout to Report--><path codeLine="82" d="M751.15,216.87 C749.07,259.56 746,333.51 746,397 C746,397 746,397 746,640 C746,719.7 683.19,791.91 634.61,835.84 " fill="none" id="Layout-backto-Report" style="stroke:#A80036;stroke-width:1.0;"/><polygon fill="#A80036" points="751.39,211.83,746.9581,220.6253,751.1474,216.8241,754.9487,221.0135,751.39,211.83" style="stroke:#A80036;stroke-width:1.0;"/><!--MD5=[c222afdaa36e9a6f268072d83f57833a]
reverse link ProjectReport to FileReport--><path codeLine="83" d="M546.27,1114.85 C529.51,1150.37 509.6,1192.55 494.93,1223.65 " fill="none" id="ProjectReport-backto-FileReport" style="stroke:#A80036;stroke-width:1.0;"/><polygon fill="#FFFFFF" points="551.82,1103.09,545.6396,1106.8052,546.692,1113.9391,552.8724,1110.2239,551.82,1103.09" style="stroke:#A80036;stroke-width:1.0;"/><text fill="#000000" font-family="sans-serif" font-size="13" lengthAdjust="spacing" textLength="7" x="541.0809" y="1124.7112">1</text><text fill="#000000" font-family="sans-serif" font-size="13" lengthAdjust="spacing" textLength="5" x="492.7521" y="1213.0405">*</text><!--MD5=[242560039e3571243fa0086e742c3cf2]
reverse link Report to FileReport--><path codeLine="85" d="M505.2,940.52 C492.91,954.04 481.92,969.39 475,986 C442.26,1064.65 453.56,1166.66 464.16,1223.94 " fill="none" id="Report-backto-FileReport" style="stroke:#A80036;stroke-width:1.0;"/><polygon fill="none" points="500.46,935.36,519.49,926.06,510.41,945.2,500.46,935.36" style="stroke:#A80036;stroke-width:1.0;"/><!--MD5=[a658f73619ff540616d4d51303a09ca2]
reverse link Report to ProjectReport--><path codeLine="86" d="M579,946.5 C579,959.48 579,973.05 579,985.78 " fill="none" id="Report-backto-ProjectReport" style="stroke:#A80036;stroke-width:1.0;"/><polygon fill="none" points="572,946.13,579,926.13,586,946.13,572,946.13" style="stroke:#A80036;stroke-width:1.0;"/><!--MD5=[4d6bc4d0a176f6f1ee4144d7dcd24a53]
reverse link CollectCommentLines to Report--><path codeLine="87" d="M579,781.31 C579,798.56 579,818.51 579,835.93 " fill="none" id="CollectCommentLines-backto-Report" style="stroke:#A80036;stroke-width:1.0;"/><polygon fill="#A80036" points="579,776.05,575,785.05,579,781.05,583,785.05,579,776.05" style="stroke:#A80036;stroke-width:1.0;"/><!--MD5=[d89429682aad55d6283477bcee4bc2fd]
reverse link Statistics to Report--><path codeLine="88" d="M435.67,584.26 C435.84,633.09 441.52,714.6 473,776 C484.53,798.48 502.76,818.99 520.88,835.75 " fill="none" id="Statistics-backto-Report" style="stroke:#A80036;stroke-width:1.0;"/><polygon fill="#A80036" points="435.67,579.06,431.67,588.06,435.67,584.06,439.67,588.06,435.67,579.06" style="stroke:#A80036;stroke-width:1.0;"/><!--MD5=[f48d2ccaa505b9e3619c9a1df1b551a9]
reverse link Report to JSONReport--><path codeLine="98" d="M651.97,938.38 C671.82,953.73 693.35,970.36 713.3,985.78 " fill="none" id="Report-backto-JSONReport" style="stroke:#A80036;stroke-width:1.0;"/><polygon fill="none" points="647.66,943.9,636.11,926.13,656.22,932.82,647.66,943.9" style="stroke:#A80036;stroke-width:1.0;"/><!--MD5=[ffcdbd459fae1a42bd2d943acc317955]
@startuml

class Mode {
    +collectors: List<Statistics>
    +tag: String
}

class ModeLibrary {
    +knownModes: Map<String, Mode>
    +getMode(tag: String): Mode
    +setMode(tag: String, stats: List<Statistics>): OK
}

class ProjectTree {
    +getValidFiles(): List<String>
    +getProjectTreeReport(): String
}

CollectStatCommand <- ProjectTree
Layout <- - - ProjectTree

ModeLibrary "1" o- "*" Mode

abstract class Statistics {
    tag: String
    +collect(fileName: String): Report
}

Mode "1" o- -"*" Statistics

class CollectCommentLines {
    tag: String
    +collect(fileName: String): Report
}

Statistics <|- - - CollectCommentLines
CollectStatCommand <- - - Mode

interface Callable {
    call(): Integer
}

class CollectStatCommand {
    mode: Mode
    ProjectDirectory: String
    execute(): Appender
    call(): Integer
}

Callable <|.. CollectStatCommand

abstract class Report {
    stats: Map<String, String>
    +save(fileName: String)
    +getStats(): Map<String, String>
}

class Layout {
    +toString(report: Report, tree: ProjectTree): String
}

class Appender {
    +output(layout: Layout): stdout
}

CollectStatCommand <- Appender
Appender <- Layout

class ProjectReport {
    stats: Map<String, String>
    childReports: List<FileReport>
    +putAllTogether()
    +save(fileName: String)
    +getStats(): Map<String, String>
}

class FileReport {
    stats: Map<String, String>
    +save(fileName: String)
    +getStats(): Map<String, String>
}

Layout <- - Report
ProjectReport "1" o- - - "*" FileReport

Report <|- FileReport
Report <|- - ProjectReport
CollectCommentLines <- - Report
Statistics <- - Report

class JSONReport {
    stats: Map<String, String>
    childReports: List<FileReport>
    +putAllTogether()
    +save(fileName: String)
    +getStats(): Map<String, String>
}

Report <|- - JSONReport

@enduml

PlantUML version 1.2021.01(Tue Feb 02 10:55:08 MSK 2021)
(GPL source distribution)
Java Runtime: OpenJDK Runtime Environment
JVM: OpenJDK 64-Bit Server VM
Default Encoding: Cp1251
Language: ru
Country: RU
--></g></svg>